  0
SECTION
  2
HEADER
  9
$ANGBASE
  50
0.0
  9
$ANGDIR
  70
1
  9
$MEASUREMENT
  70
0
  0
ENDSEC
  0
SECTION
  2
TABLES
  0
TABLE
  2
LTYPE
  70
4
  0
LTYPE
  5
40F
  2
CONTINUOUS
  70
0
  3
Solid line
  72
65
  73
0
  40
0.0
  0
LTYPE
  5
410
  2
DASHDOT
 70
0
  3
Dash Dot ____ _ ____ _
 72
65
 73
4
 40
2.0
 49
1.25
 49
-0.25
 49
0.25
 49
-0.25
  0
LTYPE
  5
411
  2
DASHED
 70
0
  3
Dashed __ __ __ __ __
 72
65
 73
2
 40
0.75
 49
0.5
 49
-0.25
  0
LTYPE
  5
43B
  2
DOTTED
 70
0
  3
Dotted .  .  .  .
 72
65
 73
2
 40
0.2
 49
0.0
 49
-0.2
  0
ENDTAB
  0
TABLE
  2
STYLE
  70
4
  0
STYLE
  2
KICAD
  70
0
  40
0
  41
1
  42
1
  50
0
  71
0
  3
isocp.shx
  0
STYLE
  2
KICADB
  70
0
  40
0
  41
1
  42
1
  50
0
  71
0
  3
isocp.shx
  0
STYLE
  2
KICADI
  70
0
  40
0
  41
1
  42
1
  50
15
  71
0
  3
isocp.shx
  0
STYLE
  2
KICADBI
  70
0
  40
0
  41
1
  42
1
  50
15
  71
0
  3
isocp.shx
  0
ENDTAB
  0
TABLE
  2
LAYER
  70
1
  0
LAYER
  2
BLACK
  70
0
  62
7
  6
CONTINUOUS
  0
ENDTAB
  0
ENDSEC
  0
SECTION
  2
ENTITIES
0
LINE
8
BLACK
6
CONTINUOUS
10
6.02362
20
-4.17323
11
5.43307
21
-4.17323
0
LINE
8
BLACK
6
CONTINUOUS
10
6.02362
20
-1.9685
11
6.02362
21
-4.17323
0
LINE
8
BLACK
6
CONTINUOUS
10
5.43307
20
-6.10236
11
5.43307
21
-4.17323
0
LINE
8
BLACK
6
CONTINUOUS
10
5.43307
20
-6.10236
11
5.07874
21
-6.10236
0
LINE
8
BLACK
6
CONTINUOUS
10
4.48819
20
-1.9685
11
6.02362
21
-1.9685
0
LINE
8
BLACK
6
CONTINUOUS
10
4.48819
20
-4.17323
11
4.48819
21
-1.9685
0
LINE
8
BLACK
6
CONTINUOUS
10
5.07874
20
-6.10236
11
5.07874
21
-4.17323
0
LINE
8
BLACK
6
CONTINUOUS
10
5.07874
20
-4.17323
11
4.48819
21
-4.17323
0
LINE
8
BLACK
6
CONTINUOUS
10
4.69213
20
-3.19213
11
4.70787
21
-3.20787
0
LINE
8
BLACK
6
CONTINUOUS
10
4.70787
20
-3.19213
11
4.69213
21
-3.20787
0
LINE
8
BLACK
6
CONTINUOUS
10
5.16142
20
-5.88976
11
5.17717
21
-5.90551
0
LINE
8
BLACK
6
CONTINUOUS
10
5.17717
20
-5.88976
11
5.16142
21
-5.90551
0
LINE
8
BLACK
6
CONTINUOUS
10
5.23622
20
-4.0748
11
5.25197
21
-4.09055
0
LINE
8
BLACK
6
CONTINUOUS
10
5.25197
20
-4.0748
11
5.23622
21
-4.09055
0
LINE
8
BLACK
6
CONTINUOUS
10
5.23821
20
-4.19291
11
5.25396
21
-4.20866
0
LINE
8
BLACK
6
CONTINUOUS
10
5.25396
20
-4.19291
11
5.23821
21
-4.20866
0
LINE
8
BLACK
6
CONTINUOUS
10
5.27756
20
-4.19291
11
5.29331
21
-4.20866
0
LINE
8
BLACK
6
CONTINUOUS
10
5.29331
20
-4.19291
11
5.27756
21
-4.20866
0
LINE
8
BLACK
6
CONTINUOUS
10
5.30709
20
-4.07677
11
5.32283
21
-4.09252
0
LINE
8
BLACK
6
CONTINUOUS
10
5.32283
20
-4.07677
11
5.30709
21
-4.09252
0
LINE
8
BLACK
6
CONTINUOUS
10
5.34252
20
-5.79528
11
5.35827
21
-5.81102
0
LINE
8
BLACK
6
CONTINUOUS
10
5.35827
20
-5.79528
11
5.34252
21
-5.81102
0
CIRCLE
8
BLACK
10
4.89055
20
-2.05276
40
0.0200787
0
CIRCLE
8
BLACK
10
4.89055
20
-2.15276
40
0.0200787
0
CIRCLE
8
BLACK
10
4.89055
20
-2.25276
40
0.0200787
0
CIRCLE
8
BLACK
10
4.89055
20
-2.35276
40
0.0200787
0
CIRCLE
8
BLACK
10
4.89055
20
-2.45276
40
0.0200787
0
CIRCLE
8
BLACK
10
4.89055
20
-2.55276
40
0.0200787
0
CIRCLE
8
BLACK
10
4.89055
20
-2.65276
40
0.0200787
0
CIRCLE
8
BLACK
10
4.89055
20
-2.75276
40
0.0200787
0
CIRCLE
8
BLACK
10
4.89055
20
-2.85276
40
0.0200787
0
CIRCLE
8
BLACK
10
4.89055
20
-2.95276
40
0.0200787
0
CIRCLE
8
BLACK
10
4.89055
20
-3.05276
40
0.0200787
0
CIRCLE
8
BLACK
10
4.89055
20
-3.15276
40
0.0200787
0
CIRCLE
8
BLACK
10
4.89055
20
-3.25276
40
0.0200787
0
CIRCLE
8
BLACK
10
4.89055
20
-3.35276
40
0.0200787
0
CIRCLE
8
BLACK
10
4.89055
20
-3.45276
40
0.0200787
0
CIRCLE
8
BLACK
10
4.89055
20
-3.55276
40
0.0200787
0
CIRCLE
8
BLACK
10
4.89055
20
-3.65276
40
0.0200787
0
CIRCLE
8
BLACK
10
4.89055
20
-3.75276
40
0.0200787
0
CIRCLE
8
BLACK
10
4.89055
20
-3.85276
40
0.0200787
0
CIRCLE
8
BLACK
10
4.89055
20
-3.95276
40
0.0200787
0
CIRCLE
8
BLACK
10
5.26748
20
-3.22638
40
0.0200787
0
CIRCLE
8
BLACK
10
5.36748
20
-3.22717
40
0.0200787
0
CIRCLE
8
BLACK
10
5.46748
20
-3.22717
40
0.0200787
0
CIRCLE
8
BLACK
10
5.59055
20
-2.05276
40
0.0200787
0
CIRCLE
8
BLACK
10
5.59055
20
-2.15276
40
0.0200787
0
CIRCLE
8
BLACK
10
5.59055
20
-2.25276
40
0.0200787
0
CIRCLE
8
BLACK
10
5.59055
20
-2.35276
40
0.0200787
0
CIRCLE
8
BLACK
10
5.59055
20
-2.45276
40
0.0200787
0
CIRCLE
8
BLACK
10
5.59055
20
-2.55276
40
0.0200787
0
CIRCLE
8
BLACK
10
5.59055
20
-2.65276
40
0.0200787
0
CIRCLE
8
BLACK
10
5.59055
20
-2.75276
40
0.0200787
0
CIRCLE
8
BLACK
10
5.59055
20
-2.85276
40
0.0200787
0
CIRCLE
8
BLACK
10
5.59055
20
-2.95276
40
0.0200787
0
CIRCLE
8
BLACK
10
5.59055
20
-3.05276
40
0.0200787
0
CIRCLE
8
BLACK
10
5.59055
20
-3.15276
40
0.0200787
0
CIRCLE
8
BLACK
10
5.59055
20
-3.25276
40
0.0200787
0
CIRCLE
8
BLACK
10
5.59055
20
-3.35276
40
0.0200787
0
CIRCLE
8
BLACK
10
5.59055
20
-3.45276
40
0.0200787
0
CIRCLE
8
BLACK
10
5.59055
20
-3.55276
40
0.0200787
0
CIRCLE
8
BLACK
10
5.59055
20
-3.65276
40
0.0200787
0
CIRCLE
8
BLACK
10
5.59055
20
-3.75276
40
0.0200787
0
CIRCLE
8
BLACK
10
5.59055
20
-3.85276
40
0.0200787
0
CIRCLE
8
BLACK
10
5.59055
20
-3.95276
40
0.0200787
0
LINE
8
BLACK
6
CONTINUOUS
10
4.6063
20
-2.04331
11
4.6063
21
-2.12992
0
LINE
8
BLACK
6
CONTINUOUS
10
4.56299
20
-2.08661
11
4.64961
21
-2.08661
0
LINE
8
BLACK
6
CONTINUOUS
10
4.6063
20
-4.01181
11
4.6063
21
-4.09843
0
LINE
8
BLACK
6
CONTINUOUS
10
4.56299
20
-4.05512
11
4.64961
21
-4.05512
0
LINE
8
BLACK
6
CONTINUOUS
10
5.90551
20
-2.04331
11
5.90551
21
-2.12992
0
LINE
8
BLACK
6
CONTINUOUS
10
5.8622
20
-2.08661
11
5.94882
21
-2.08661
0
LINE
8
BLACK
6
CONTINUOUS
10
5.90551
20
-4.01181
11
5.90551
21
-4.09843
0
LINE
8
BLACK
6
CONTINUOUS
10
5.8622
20
-4.05512
11
5.94882
21
-4.05512
0
LINE
8
BLACK
6
CONTINUOUS
10
4.58371
20
-6.22737
11
4.58371
21
-6.14863
0
LINE
8
BLACK
6
CONTINUOUS
10
4.58371
20
-6.14863
11
4.60246
21
-6.14863
0
LINE
8
BLACK
6
CONTINUOUS
10
4.60246
20
-6.14863
11
4.6137
21
-6.15238
0
LINE
8
BLACK
6
CONTINUOUS
10
4.6137
20
-6.15238
11
4.6212
21
-6.15988
0
LINE
8
BLACK
6
CONTINUOUS
10
4.6212
20
-6.15988
11
4.62495
21
-6.16738
0
LINE
8
BLACK
6
CONTINUOUS
10
4.62495
20
-6.16738
11
4.6287
21
-6.18238
0
LINE
8
BLACK
6
CONTINUOUS
10
4.6287
20
-6.18238
11
4.6287
21
-6.19363
0
LINE
8
BLACK
6
CONTINUOUS
10
4.6287
20
-6.19363
11
4.62495
21
-6.20862
0
LINE
8
BLACK
6
CONTINUOUS
10
4.62495
20
-6.20862
11
4.6212
21
-6.21612
0
LINE
8
BLACK
6
CONTINUOUS
10
4.6212
20
-6.21612
11
4.6137
21
-6.22362
0
LINE
8
BLACK
6
CONTINUOUS
10
4.6137
20
-6.22362
11
4.60246
21
-6.22737
0
LINE
8
BLACK
6
CONTINUOUS
10
4.60246
20
-6.22737
11
4.58371
21
-6.22737
0
LINE
8
BLACK
6
CONTINUOUS
10
4.66245
20
-6.22737
11
4.66245
21
-6.17488
0
LINE
8
BLACK
6
CONTINUOUS
10
4.66245
20
-6.18988
11
4.6662
21
-6.18238
0
LINE
8
BLACK
6
CONTINUOUS
10
4.6662
20
-6.18238
11
4.66995
21
-6.17863
0
LINE
8
BLACK
6
CONTINUOUS
10
4.66995
20
-6.17863
11
4.67745
21
-6.17488
0
LINE
8
BLACK
6
CONTINUOUS
10
4.67745
20
-6.17488
11
4.68495
21
-6.17488
0
LINE
8
BLACK
6
CONTINUOUS
10
4.71119
20
-6.22737
11
4.71119
21
-6.17488
0
LINE
8
BLACK
6
CONTINUOUS
10
4.71119
20
-6.14863
11
4.70744
21
-6.15238
0
LINE
8
BLACK
6
CONTINUOUS
10
4.70744
20
-6.15238
11
4.71119
21
-6.15613
0
LINE
8
BLACK
6
CONTINUOUS
10
4.71119
20
-6.15613
11
4.71494
21
-6.15238
0
LINE
8
BLACK
6
CONTINUOUS
10
4.71494
20
-6.15238
11
4.71119
21
-6.14863
0
LINE
8
BLACK
6
CONTINUOUS
10
4.71119
20
-6.14863
11
4.71119
21
-6.15613
0
LINE
8
BLACK
6
CONTINUOUS
10
4.75994
20
-6.22737
11
4.75244
21
-6.22362
0
LINE
8
BLACK
6
CONTINUOUS
10
4.75244
20
-6.22362
11
4.74869
21
-6.21612
0
LINE
8
BLACK
6
CONTINUOUS
10
4.74869
20
-6.21612
11
4.74869
21
-6.14863
0
LINE
8
BLACK
6
CONTINUOUS
10
4.80118
20
-6.22737
11
4.79368
21
-6.22362
0
LINE
8
BLACK
6
CONTINUOUS
10
4.79368
20
-6.22362
11
4.78993
21
-6.21612
0
LINE
8
BLACK
6
CONTINUOUS
10
4.78993
20
-6.21612
11
4.78993
21
-6.14863
0
LINE
8
BLACK
6
CONTINUOUS
10
4.89117
20
-6.22737
11
4.89117
21
-6.14863
0
LINE
8
BLACK
6
CONTINUOUS
10
4.89117
20
-6.14863
11
4.91742
21
-6.20487
0
LINE
8
BLACK
6
CONTINUOUS
10
4.91742
20
-6.20487
11
4.94366
21
-6.14863
0
LINE
8
BLACK
6
CONTINUOUS
10
4.94366
20
-6.14863
11
4.94366
21
-6.22737
0
LINE
8
BLACK
6
CONTINUOUS
10
5.0149
20
-6.22737
11
5.0149
21
-6.18613
0
LINE
8
BLACK
6
CONTINUOUS
10
5.0149
20
-6.18613
11
5.01115
21
-6.17863
0
LINE
8
BLACK
6
CONTINUOUS
10
5.01115
20
-6.17863
11
5.00366
21
-6.17488
0
LINE
8
BLACK
6
CONTINUOUS
10
5.00366
20
-6.17488
11
4.98866
21
-6.17488
0
LINE
8
BLACK
6
CONTINUOUS
10
4.98866
20
-6.17488
11
4.98116
21
-6.17863
0
LINE
8
BLACK
6
CONTINUOUS
10
5.0149
20
-6.22362
11
5.00741
21
-6.22737
0
LINE
8
BLACK
6
CONTINUOUS
10
5.00741
20
-6.22737
11
4.98866
21
-6.22737
0
LINE
8
BLACK
6
CONTINUOUS
10
4.98866
20
-6.22737
11
4.98116
21
-6.22362
0
LINE
8
BLACK
6
CONTINUOUS
10
4.98116
20
-6.22362
11
4.97741
21
-6.21612
0
LINE
8
BLACK
6
CONTINUOUS
10
4.97741
20
-6.21612
11
4.97741
21
-6.20862
0
LINE
8
BLACK
6
CONTINUOUS
10
4.97741
20
-6.20862
11
4.98116
21
-6.20112
0
LINE
8
BLACK
6
CONTINUOUS
10
4.98116
20
-6.20112
11
4.98866
21
-6.19738
0
LINE
8
BLACK
6
CONTINUOUS
10
4.98866
20
-6.19738
11
5.00741
21
-6.19738
0
LINE
8
BLACK
6
CONTINUOUS
10
5.00741
20
-6.19738
11
5.0149
21
-6.19363
0
LINE
8
BLACK
6
CONTINUOUS
10
5.0524
20
-6.17488
11
5.0524
21
-6.25362
0
LINE
8
BLACK
6
CONTINUOUS
10
5.0524
20
-6.17863
11
5.0599
21
-6.17488
0
LINE
8
BLACK
6
CONTINUOUS
10
5.0599
20
-6.17488
11
5.0749
21
-6.17488
0
LINE
8
BLACK
6
CONTINUOUS
10
5.0749
20
-6.17488
11
5.0824
21
-6.17863
0
LINE
8
BLACK
6
CONTINUOUS
10
5.0824
20
-6.17863
11
5.08615
21
-6.18238
0
LINE
8
BLACK
6
CONTINUOUS
10
5.08615
20
-6.18238
11
5.0899
21
-6.18988
0
LINE
8
BLACK
6
CONTINUOUS
10
5.0899
20
-6.18988
11
5.0899
21
-6.21237
0
LINE
8
BLACK
6
CONTINUOUS
10
5.0899
20
-6.21237
11
5.08615
21
-6.21987
0
LINE
8
BLACK
6
CONTINUOUS
10
5.08615
20
-6.21987
11
5.0824
21
-6.22362
0
LINE
8
BLACK
6
CONTINUOUS
10
5.0824
20
-6.22362
11
5.0749
21
-6.22737
0
LINE
8
BLACK
6
CONTINUOUS
10
5.0749
20
-6.22737
11
5.0599
21
-6.22737
0
LINE
8
BLACK
6
CONTINUOUS
10
5.0599
20
-6.22737
11
5.0524
21
-6.22362
0
LINE
8
BLACK
6
CONTINUOUS
10
5.12364
20
-6.21987
11
5.12739
21
-6.22362
0
LINE
8
BLACK
6
CONTINUOUS
10
5.12739
20
-6.22362
11
5.12364
21
-6.22737
0
LINE
8
BLACK
6
CONTINUOUS
10
5.12364
20
-6.22737
11
5.11989
21
-6.22362
0
LINE
8
BLACK
6
CONTINUOUS
10
5.11989
20
-6.22362
11
5.12364
21
-6.21987
0
LINE
8
BLACK
6
CONTINUOUS
10
5.12364
20
-6.21987
11
5.12364
21
-6.22737
0
LINE
8
BLACK
6
CONTINUOUS
10
5.12364
20
-6.17863
11
5.12739
21
-6.18238
0
LINE
8
BLACK
6
CONTINUOUS
10
5.12739
20
-6.18238
11
5.12364
21
-6.18613
0
LINE
8
BLACK
6
CONTINUOUS
10
5.12364
20
-6.18613
11
5.11989
21
-6.18238
0
LINE
8
BLACK
6
CONTINUOUS
10
5.11989
20
-6.18238
11
5.12364
21
-6.17863
0
LINE
8
BLACK
6
CONTINUOUS
10
5.12364
20
-6.17863
11
5.12364
21
-6.18613
0
LINE
8
BLACK
6
CONTINUOUS
10
4.47047
20
-6.34843
11
4.48622
21
-6.36417
0
LINE
8
BLACK
6
CONTINUOUS
10
4.48622
20
-6.34843
11
4.47047
21
-6.36417
0
LINE
8
BLACK
6
CONTINUOUS
10
4.59871
20
-6.31399
11
4.60621
21
-6.31399
0
LINE
8
BLACK
6
CONTINUOUS
10
4.60621
20
-6.31399
11
4.6137
21
-6.31774
0
LINE
8
BLACK
6
CONTINUOUS
10
4.6137
20
-6.31774
11
4.61745
21
-6.32148
0
LINE
8
BLACK
6
CONTINUOUS
10
4.61745
20
-6.32148
11
4.6212
21
-6.32898
0
LINE
8
BLACK
6
CONTINUOUS
10
4.6212
20
-6.32898
11
4.62495
21
-6.34398
0
LINE
8
BLACK
6
CONTINUOUS
10
4.62495
20
-6.34398
11
4.62495
21
-6.36273
0
LINE
8
BLACK
6
CONTINUOUS
10
4.62495
20
-6.36273
11
4.6212
21
-6.37773
0
LINE
8
BLACK
6
CONTINUOUS
10
4.6212
20
-6.37773
11
4.61745
21
-6.38523
0
LINE
8
BLACK
6
CONTINUOUS
10
4.61745
20
-6.38523
11
4.6137
21
-6.38898
0
LINE
8
BLACK
6
CONTINUOUS
10
4.6137
20
-6.38898
11
4.60621
21
-6.39273
0
LINE
8
BLACK
6
CONTINUOUS
10
4.60621
20
-6.39273
11
4.59871
21
-6.39273
0
LINE
8
BLACK
6
CONTINUOUS
10
4.59871
20
-6.39273
11
4.59121
21
-6.38898
0
LINE
8
BLACK
6
CONTINUOUS
10
4.59121
20
-6.38898
11
4.58746
21
-6.38523
0
LINE
8
BLACK
6
CONTINUOUS
10
4.58746
20
-6.38523
11
4.58371
21
-6.37773
0
LINE
8
BLACK
6
CONTINUOUS
10
4.58371
20
-6.37773
11
4.57996
21
-6.36273
0
LINE
8
BLACK
6
CONTINUOUS
10
4.57996
20
-6.36273
11
4.57996
21
-6.34398
0
LINE
8
BLACK
6
CONTINUOUS
10
4.57996
20
-6.34398
11
4.58371
21
-6.32898
0
LINE
8
BLACK
6
CONTINUOUS
10
4.58371
20
-6.32898
11
4.58746
21
-6.32148
0
LINE
8
BLACK
6
CONTINUOUS
10
4.58746
20
-6.32148
11
4.59121
21
-6.31774
0
LINE
8
BLACK
6
CONTINUOUS
10
4.59121
20
-6.31774
11
4.59871
21
-6.31399
0
LINE
8
BLACK
6
CONTINUOUS
10
4.6587
20
-6.38523
11
4.66245
21
-6.38898
0
LINE
8
BLACK
6
CONTINUOUS
10
4.66245
20
-6.38898
11
4.6587
21
-6.39273
0
LINE
8
BLACK
6
CONTINUOUS
10
4.6587
20
-6.39273
11
4.65495
21
-6.38898
0
LINE
8
BLACK
6
CONTINUOUS
10
4.65495
20
-6.38898
11
4.6587
21
-6.38523
0
LINE
8
BLACK
6
CONTINUOUS
10
4.6587
20
-6.38523
11
4.6587
21
-6.39273
0
LINE
8
BLACK
6
CONTINUOUS
10
4.72994
20
-6.34023
11
4.72994
21
-6.39273
0
LINE
8
BLACK
6
CONTINUOUS
10
4.71119
20
-6.31024
11
4.69244
21
-6.36648
0
LINE
8
BLACK
6
CONTINUOUS
10
4.69244
20
-6.36648
11
4.74119
21
-6.36648
0
LINE
8
BLACK
6
CONTINUOUS
10
4.78618
20
-6.31399
11
4.79368
21
-6.31399
0
LINE
8
BLACK
6
CONTINUOUS
10
4.79368
20
-6.31399
11
4.80118
21
-6.31774
0
LINE
8
BLACK
6
CONTINUOUS
10
4.80118
20
-6.31774
11
4.80493
21
-6.32148
0
LINE
8
BLACK
6
CONTINUOUS
10
4.80493
20
-6.32148
11
4.80868
21
-6.32898
0
LINE
8
BLACK
6
CONTINUOUS
10
4.80868
20
-6.32898
11
4.81243
21
-6.34398
0
LINE
8
BLACK
6
CONTINUOUS
10
4.81243
20
-6.34398
11
4.81243
21
-6.36273
0
LINE
8
BLACK
6
CONTINUOUS
10
4.81243
20
-6.36273
11
4.80868
21
-6.37773
0
LINE
8
BLACK
6
CONTINUOUS
10
4.80868
20
-6.37773
11
4.80493
21
-6.38523
0
LINE
8
BLACK
6
CONTINUOUS
10
4.80493
20
-6.38523
11
4.80118
21
-6.38898
0
LINE
8
BLACK
6
CONTINUOUS
10
4.80118
20
-6.38898
11
4.79368
21
-6.39273
0
LINE
8
BLACK
6
CONTINUOUS
10
4.79368
20
-6.39273
11
4.78618
21
-6.39273
0
LINE
8
BLACK
6
CONTINUOUS
10
4.78618
20
-6.39273
11
4.77868
21
-6.38898
0
LINE
8
BLACK
6
CONTINUOUS
10
4.77868
20
-6.38898
11
4.77493
21
-6.38523
0
LINE
8
BLACK
6
CONTINUOUS
10
4.77493
20
-6.38523
11
4.77118
21
-6.37773
0
LINE
8
BLACK
6
CONTINUOUS
10
4.77118
20
-6.37773
11
4.76744
21
-6.36273
0
LINE
8
BLACK
6
CONTINUOUS
10
4.76744
20
-6.36273
11
4.76744
21
-6.34398
0
LINE
8
BLACK
6
CONTINUOUS
10
4.76744
20
-6.34398
11
4.77118
21
-6.32898
0
LINE
8
BLACK
6
CONTINUOUS
10
4.77118
20
-6.32898
11
4.77493
21
-6.32148
0
LINE
8
BLACK
6
CONTINUOUS
10
4.77493
20
-6.32148
11
4.77868
21
-6.31774
0
LINE
8
BLACK
6
CONTINUOUS
10
4.77868
20
-6.31774
11
4.78618
21
-6.31399
0
LINE
8
BLACK
6
CONTINUOUS
10
4.86117
20
-6.31399
11
4.86867
21
-6.31399
0
LINE
8
BLACK
6
CONTINUOUS
10
4.86867
20
-6.31399
11
4.87617
21
-6.31774
0
LINE
8
BLACK
6
CONTINUOUS
10
4.87617
20
-6.31774
11
4.87992
21
-6.32148
0
LINE
8
BLACK
6
CONTINUOUS
10
4.87992
20
-6.32148
11
4.88367
21
-6.32898
0
LINE
8
BLACK
6
CONTINUOUS
10
4.88367
20
-6.32898
11
4.88742
21
-6.34398
0
LINE
8
BLACK
6
CONTINUOUS
10
4.88742
20
-6.34398
11
4.88742
21
-6.36273
0
LINE
8
BLACK
6
CONTINUOUS
10
4.88742
20
-6.36273
11
4.88367
21
-6.37773
0
LINE
8
BLACK
6
CONTINUOUS
10
4.88367
20
-6.37773
11
4.87992
21
-6.38523
0
LINE
8
BLACK
6
CONTINUOUS
10
4.87992
20
-6.38523
11
4.87617
21
-6.38898
0
LINE
8
BLACK
6
CONTINUOUS
10
4.87617
20
-6.38898
11
4.86867
21
-6.39273
0
LINE
8
BLACK
6
CONTINUOUS
10
4.86867
20
-6.39273
11
4.86117
21
-6.39273
0
LINE
8
BLACK
6
CONTINUOUS
10
4.86117
20
-6.39273
11
4.85367
21
-6.38898
0
LINE
8
BLACK
6
CONTINUOUS
10
4.85367
20
-6.38898
11
4.84992
21
-6.38523
0
LINE
8
BLACK
6
CONTINUOUS
10
4.84992
20
-6.38523
11
4.84618
21
-6.37773
0
LINE
8
BLACK
6
CONTINUOUS
10
4.84618
20
-6.37773
11
4.84243
21
-6.36273
0
LINE
8
BLACK
6
CONTINUOUS
10
4.84243
20
-6.36273
11
4.84243
21
-6.34398
0
LINE
8
BLACK
6
CONTINUOUS
10
4.84243
20
-6.34398
11
4.84618
21
-6.32898
0
LINE
8
BLACK
6
CONTINUOUS
10
4.84618
20
-6.32898
11
4.84992
21
-6.32148
0
LINE
8
BLACK
6
CONTINUOUS
10
4.84992
20
-6.32148
11
4.85367
21
-6.31774
0
LINE
8
BLACK
6
CONTINUOUS
10
4.85367
20
-6.31774
11
4.86117
21
-6.31399
0
LINE
8
BLACK
6
CONTINUOUS
10
4.92117
20
-6.39273
11
4.92117
21
-6.34023
0
LINE
8
BLACK
6
CONTINUOUS
10
4.92117
20
-6.34773
11
4.92492
21
-6.34398
0
LINE
8
BLACK
6
CONTINUOUS
10
4.92492
20
-6.34398
11
4.93241
21
-6.34023
0
LINE
8
BLACK
6
CONTINUOUS
10
4.93241
20
-6.34023
11
4.94366
21
-6.34023
0
LINE
8
BLACK
6
CONTINUOUS
10
4.94366
20
-6.34023
11
4.95116
21
-6.34398
0
LINE
8
BLACK
6
CONTINUOUS
10
4.95116
20
-6.34398
11
4.95491
21
-6.35148
0
LINE
8
BLACK
6
CONTINUOUS
10
4.95491
20
-6.35148
11
4.95491
21
-6.39273
0
LINE
8
BLACK
6
CONTINUOUS
10
4.95491
20
-6.35148
11
4.95866
21
-6.34398
0
LINE
8
BLACK
6
CONTINUOUS
10
4.95866
20
-6.34398
11
4.96616
21
-6.34023
0
LINE
8
BLACK
6
CONTINUOUS
10
4.96616
20
-6.34023
11
4.97741
21
-6.34023
0
LINE
8
BLACK
6
CONTINUOUS
10
4.97741
20
-6.34023
11
4.98491
21
-6.34398
0
LINE
8
BLACK
6
CONTINUOUS
10
4.98491
20
-6.34398
11
4.98866
21
-6.35148
0
LINE
8
BLACK
6
CONTINUOUS
10
4.98866
20
-6.35148
11
4.98866
21
-6.39273
0
LINE
8
BLACK
6
CONTINUOUS
10
5.02615
20
-6.39273
11
5.02615
21
-6.34023
0
LINE
8
BLACK
6
CONTINUOUS
10
5.02615
20
-6.34773
11
5.0299
21
-6.34398
0
LINE
8
BLACK
6
CONTINUOUS
10
5.0299
20
-6.34398
11
5.0374
21
-6.34023
0
LINE
8
BLACK
6
CONTINUOUS
10
5.0374
20
-6.34023
11
5.04865
21
-6.34023
0
LINE
8
BLACK
6
CONTINUOUS
10
5.04865
20
-6.34023
11
5.05615
21
-6.34398
0
LINE
8
BLACK
6
CONTINUOUS
10
5.05615
20
-6.34398
11
5.0599
21
-6.35148
0
LINE
8
BLACK
6
CONTINUOUS
10
5.0599
20
-6.35148
11
5.0599
21
-6.39273
0
LINE
8
BLACK
6
CONTINUOUS
10
5.0599
20
-6.35148
11
5.06365
21
-6.34398
0
LINE
8
BLACK
6
CONTINUOUS
10
5.06365
20
-6.34398
11
5.07115
21
-6.34023
0
LINE
8
BLACK
6
CONTINUOUS
10
5.07115
20
-6.34023
11
5.0824
21
-6.34023
0
LINE
8
BLACK
6
CONTINUOUS
10
5.0824
20
-6.34023
11
5.0899
21
-6.34398
0
LINE
8
BLACK
6
CONTINUOUS
10
5.0899
20
-6.34398
11
5.09364
21
-6.35148
0
LINE
8
BLACK
6
CONTINUOUS
10
5.09364
20
-6.35148
11
5.09364
21
-6.39273
0
LINE
8
BLACK
6
CONTINUOUS
10
5.24738
20
-6.31024
11
5.17988
21
-6.41147
0
LINE
8
BLACK
6
CONTINUOUS
10
5.34861
20
-6.31399
11
5.35611
21
-6.31399
0
LINE
8
BLACK
6
CONTINUOUS
10
5.35611
20
-6.31399
11
5.36361
21
-6.31774
0
LINE
8
BLACK
6
CONTINUOUS
10
5.36361
20
-6.31774
11
5.36736
21
-6.32148
0
LINE
8
BLACK
6
CONTINUOUS
10
5.36736
20
-6.32148
11
5.37111
21
-6.32898
0
LINE
8
BLACK
6
CONTINUOUS
10
5.37111
20
-6.32898
11
5.37486
21
-6.34398
0
LINE
8
BLACK
6
CONTINUOUS
10
5.37486
20
-6.34398
11
5.37486
21
-6.36273
0
LINE
8
BLACK
6
CONTINUOUS
10
5.37486
20
-6.36273
11
5.37111
21
-6.37773
0
LINE
8
BLACK
6
CONTINUOUS
10
5.37111
20
-6.37773
11
5.36736
21
-6.38523
0
LINE
8
BLACK
6
CONTINUOUS
10
5.36736
20
-6.38523
11
5.36361
21
-6.38898
0
LINE
8
BLACK
6
CONTINUOUS
10
5.36361
20
-6.38898
11
5.35611
21
-6.39273
0
LINE
8
BLACK
6
CONTINUOUS
10
5.35611
20
-6.39273
11
5.34861
21
-6.39273
0
LINE
8
BLACK
6
CONTINUOUS
10
5.34861
20
-6.39273
11
5.34111
21
-6.38898
0
LINE
8
BLACK
6
CONTINUOUS
10
5.34111
20
-6.38898
11
5.33736
21
-6.38523
0
LINE
8
BLACK
6
CONTINUOUS
10
5.33736
20
-6.38523
11
5.33361
21
-6.37773
0
LINE
8
BLACK
6
CONTINUOUS
10
5.33361
20
-6.37773
11
5.32987
21
-6.36273
0
LINE
8
BLACK
6
CONTINUOUS
10
5.32987
20
-6.36273
11
5.32987
21
-6.34398
0
LINE
8
BLACK
6
CONTINUOUS
10
5.32987
20
-6.34398
11
5.33361
21
-6.32898
0
LINE
8
BLACK
6
CONTINUOUS
10
5.33361
20
-6.32898
11
5.33736
21
-6.32148
0
LINE
8
BLACK
6
CONTINUOUS
10
5.33736
20
-6.32148
11
5.34111
21
-6.31774
0
LINE
8
BLACK
6
CONTINUOUS
10
5.34111
20
-6.31774
11
5.34861
21
-6.31399
0
LINE
8
BLACK
6
CONTINUOUS
10
5.40861
20
-6.38523
11
5.41235
21
-6.38898
0
LINE
8
BLACK
6
CONTINUOUS
10
5.41235
20
-6.38898
11
5.40861
21
-6.39273
0
LINE
8
BLACK
6
CONTINUOUS
10
5.40861
20
-6.39273
11
5.40486
21
-6.38898
0
LINE
8
BLACK
6
CONTINUOUS
10
5.40486
20
-6.38898
11
5.40861
21
-6.38523
0
LINE
8
BLACK
6
CONTINUOUS
10
5.40861
20
-6.38523
11
5.40861
21
-6.39273
0
LINE
8
BLACK
6
CONTINUOUS
10
5.4611
20
-6.31399
11
5.4686
21
-6.31399
0
LINE
8
BLACK
6
CONTINUOUS
10
5.4686
20
-6.31399
11
5.4761
21
-6.31774
0
LINE
8
BLACK
6
CONTINUOUS
10
5.4761
20
-6.31774
11
5.47985
21
-6.32148
0
LINE
8
BLACK
6
CONTINUOUS
10
5.47985
20
-6.32148
11
5.4836
21
-6.32898
0
LINE
8
BLACK
6
CONTINUOUS
10
5.4836
20
-6.32898
11
5.48735
21
-6.34398
0
LINE
8
BLACK
6
CONTINUOUS
10
5.48735
20
-6.34398
11
5.48735
21
-6.36273
0
LINE
8
BLACK
6
CONTINUOUS
10
5.48735
20
-6.36273
11
5.4836
21
-6.37773
0
LINE
8
BLACK
6
CONTINUOUS
10
5.4836
20
-6.37773
11
5.47985
21
-6.38523
0
LINE
8
BLACK
6
CONTINUOUS
10
5.47985
20
-6.38523
11
5.4761
21
-6.38898
0
LINE
8
BLACK
6
CONTINUOUS
10
5.4761
20
-6.38898
11
5.4686
21
-6.39273
0
LINE
8
BLACK
6
CONTINUOUS
10
5.4686
20
-6.39273
11
5.4611
21
-6.39273
0
LINE
8
BLACK
6
CONTINUOUS
10
5.4611
20
-6.39273
11
5.4536
21
-6.38898
0
LINE
8
BLACK
6
CONTINUOUS
10
5.4536
20
-6.38898
11
5.44985
21
-6.38523
0
LINE
8
BLACK
6
CONTINUOUS
10
5.44985
20
-6.38523
11
5.4461
21
-6.37773
0
LINE
8
BLACK
6
CONTINUOUS
10
5.4461
20
-6.37773
11
5.44235
21
-6.36273
0
LINE
8
BLACK
6
CONTINUOUS
10
5.44235
20
-6.36273
11
5.44235
21
-6.34398
0
LINE
8
BLACK
6
CONTINUOUS
10
5.44235
20
-6.34398
11
5.4461
21
-6.32898
0
LINE
8
BLACK
6
CONTINUOUS
10
5.4461
20
-6.32898
11
5.44985
21
-6.32148
0
LINE
8
BLACK
6
CONTINUOUS
10
5.44985
20
-6.32148
11
5.4536
21
-6.31774
0
LINE
8
BLACK
6
CONTINUOUS
10
5.4536
20
-6.31774
11
5.4611
21
-6.31399
0
LINE
8
BLACK
6
CONTINUOUS
10
5.56234
20
-6.39273
11
5.51734
21
-6.39273
0
LINE
8
BLACK
6
CONTINUOUS
10
5.53984
20
-6.39273
11
5.53984
21
-6.31399
0
LINE
8
BLACK
6
CONTINUOUS
10
5.53984
20
-6.31399
11
5.53234
21
-6.32523
0
LINE
8
BLACK
6
CONTINUOUS
10
5.53234
20
-6.32523
11
5.52484
21
-6.33273
0
LINE
8
BLACK
6
CONTINUOUS
10
5.52484
20
-6.33273
11
5.51734
21
-6.33648
0
LINE
8
BLACK
6
CONTINUOUS
10
5.63358
20
-6.31399
11
5.59608
21
-6.31399
0
LINE
8
BLACK
6
CONTINUOUS
10
5.59608
20
-6.31399
11
5.59233
21
-6.35148
0
LINE
8
BLACK
6
CONTINUOUS
10
5.59233
20
-6.35148
11
5.59608
21
-6.34773
0
LINE
8
BLACK
6
CONTINUOUS
10
5.59608
20
-6.34773
11
5.60358
21
-6.34398
0
LINE
8
BLACK
6
CONTINUOUS
10
5.60358
20
-6.34398
11
5.62233
21
-6.34398
0
LINE
8
BLACK
6
CONTINUOUS
10
5.62233
20
-6.34398
11
5.62983
21
-6.34773
0
LINE
8
BLACK
6
CONTINUOUS
10
5.62983
20
-6.34773
11
5.63358
21
-6.35148
0
LINE
8
BLACK
6
CONTINUOUS
10
5.63358
20
-6.35148
11
5.63733
21
-6.35898
0
LINE
8
BLACK
6
CONTINUOUS
10
5.63733
20
-6.35898
11
5.63733
21
-6.37773
0
LINE
8
BLACK
6
CONTINUOUS
10
5.63733
20
-6.37773
11
5.63358
21
-6.38523
0
LINE
8
BLACK
6
CONTINUOUS
10
5.63358
20
-6.38523
11
5.62983
21
-6.38898
0
LINE
8
BLACK
6
CONTINUOUS
10
5.62983
20
-6.38898
11
5.62233
21
-6.39273
0
LINE
8
BLACK
6
CONTINUOUS
10
5.62233
20
-6.39273
11
5.60358
21
-6.39273
0
LINE
8
BLACK
6
CONTINUOUS
10
5.60358
20
-6.39273
11
5.59608
21
-6.38898
0
LINE
8
BLACK
6
CONTINUOUS
10
5.59608
20
-6.38898
11
5.59233
21
-6.38523
0
LINE
8
BLACK
6
CONTINUOUS
10
5.66357
20
-6.31399
11
5.71607
21
-6.31399
0
LINE
8
BLACK
6
CONTINUOUS
10
5.71607
20
-6.31399
11
5.68232
21
-6.39273
0
LINE
8
BLACK
6
CONTINUOUS
10
5.74231
20
-6.31399
11
5.74231
21
-6.32898
0
LINE
8
BLACK
6
CONTINUOUS
10
5.77231
20
-6.31399
11
5.77231
21
-6.32898
0
LINE
8
BLACK
6
CONTINUOUS
10
5.88855
20
-6.42272
11
5.8848
21
-6.41897
0
LINE
8
BLACK
6
CONTINUOUS
10
5.8848
20
-6.41897
11
5.8773
21
-6.40772
0
LINE
8
BLACK
6
CONTINUOUS
10
5.8773
20
-6.40772
11
5.87355
21
-6.40022
0
LINE
8
BLACK
6
CONTINUOUS
10
5.87355
20
-6.40022
11
5.8698
21
-6.38898
0
LINE
8
BLACK
6
CONTINUOUS
10
5.8698
20
-6.38898
11
5.86605
21
-6.37023
0
LINE
8
BLACK
6
CONTINUOUS
10
5.86605
20
-6.37023
11
5.86605
21
-6.35523
0
LINE
8
BLACK
6
CONTINUOUS
10
5.86605
20
-6.35523
11
5.8698
21
-6.33648
0
LINE
8
BLACK
6
CONTINUOUS
10
5.8698
20
-6.33648
11
5.87355
21
-6.32523
0
LINE
8
BLACK
6
CONTINUOUS
10
5.87355
20
-6.32523
11
5.8773
21
-6.31774
0
LINE
8
BLACK
6
CONTINUOUS
10
5.8773
20
-6.31774
11
5.8848
21
-6.30649
0
LINE
8
BLACK
6
CONTINUOUS
10
5.8848
20
-6.30649
11
5.88855
21
-6.30274
0
LINE
8
BLACK
6
CONTINUOUS
10
5.91104
20
-6.31399
11
5.96354
21
-6.31399
0
LINE
8
BLACK
6
CONTINUOUS
10
5.96354
20
-6.31399
11
5.92979
21
-6.39273
0
LINE
8
BLACK
6
CONTINUOUS
10
6.05352
20
-6.39273
11
6.05352
21
-6.31399
0
LINE
8
BLACK
6
CONTINUOUS
10
6.08727
20
-6.39273
11
6.08727
21
-6.35148
0
LINE
8
BLACK
6
CONTINUOUS
10
6.08727
20
-6.35148
11
6.08352
21
-6.34398
0
LINE
8
BLACK
6
CONTINUOUS
10
6.08352
20
-6.34398
11
6.07602
21
-6.34023
0
LINE
8
BLACK
6
CONTINUOUS
10
6.07602
20
-6.34023
11
6.06477
21
-6.34023
0
LINE
8
BLACK
6
CONTINUOUS
10
6.06477
20
-6.34023
11
6.05727
21
-6.34398
0
LINE
8
BLACK
6
CONTINUOUS
10
6.05727
20
-6.34398
11
6.05352
21
-6.34773
0
LINE
8
BLACK
6
CONTINUOUS
10
6.13601
20
-6.39273
11
6.12852
21
-6.38898
0
LINE
8
BLACK
6
CONTINUOUS
10
6.12852
20
-6.38898
11
6.12477
21
-6.38523
0
LINE
8
BLACK
6
CONTINUOUS
10
6.12477
20
-6.38523
11
6.12102
21
-6.37773
0
LINE
8
BLACK
6
CONTINUOUS
10
6.12102
20
-6.37773
11
6.12102
21
-6.35523
0
LINE
8
BLACK
6
CONTINUOUS
10
6.12102
20
-6.35523
11
6.12477
21
-6.34773
0
LINE
8
BLACK
6
CONTINUOUS
10
6.12477
20
-6.34773
11
6.12852
21
-6.34398
0
LINE
8
BLACK
6
CONTINUOUS
10
6.12852
20
-6.34398
11
6.13601
21
-6.34023
0
LINE
8
BLACK
6
CONTINUOUS
10
6.13601
20
-6.34023
11
6.14726
21
-6.34023
0
LINE
8
BLACK
6
CONTINUOUS
10
6.14726
20
-6.34023
11
6.15476
21
-6.34398
0
LINE
8
BLACK
6
CONTINUOUS
10
6.15476
20
-6.34398
11
6.15851
21
-6.34773
0
LINE
8
BLACK
6
CONTINUOUS
10
6.15851
20
-6.34773
11
6.16226
21
-6.35523
0
LINE
8
BLACK
6
CONTINUOUS
10
6.16226
20
-6.35523
11
6.16226
21
-6.37773
0
LINE
8
BLACK
6
CONTINUOUS
10
6.16226
20
-6.37773
11
6.15851
21
-6.38523
0
LINE
8
BLACK
6
CONTINUOUS
10
6.15851
20
-6.38523
11
6.15476
21
-6.38898
0
LINE
8
BLACK
6
CONTINUOUS
10
6.15476
20
-6.38898
11
6.14726
21
-6.39273
0
LINE
8
BLACK
6
CONTINUOUS
10
6.14726
20
-6.39273
11
6.13601
21
-6.39273
0
LINE
8
BLACK
6
CONTINUOUS
10
6.20726
20
-6.39273
11
6.19976
21
-6.38898
0
LINE
8
BLACK
6
CONTINUOUS
10
6.19976
20
-6.38898
11
6.19601
21
-6.38148
0
LINE
8
BLACK
6
CONTINUOUS
10
6.19601
20
-6.38148
11
6.19601
21
-6.31399
0
LINE
8
BLACK
6
CONTINUOUS
10
6.26725
20
-6.38898
11
6.25975
21
-6.39273
0
LINE
8
BLACK
6
CONTINUOUS
10
6.25975
20
-6.39273
11
6.24475
21
-6.39273
0
LINE
8
BLACK
6
CONTINUOUS
10
6.24475
20
-6.39273
11
6.23725
21
-6.38898
0
LINE
8
BLACK
6
CONTINUOUS
10
6.23725
20
-6.38898
11
6.2335
21
-6.38148
0
LINE
8
BLACK
6
CONTINUOUS
10
6.2335
20
-6.38148
11
6.2335
21
-6.35148
0
LINE
8
BLACK
6
CONTINUOUS
10
6.2335
20
-6.35148
11
6.23725
21
-6.34398
0
LINE
8
BLACK
6
CONTINUOUS
10
6.23725
20
-6.34398
11
6.24475
21
-6.34023
0
LINE
8
BLACK
6
CONTINUOUS
10
6.24475
20
-6.34023
11
6.25975
21
-6.34023
0
LINE
8
BLACK
6
CONTINUOUS
10
6.25975
20
-6.34023
11
6.26725
21
-6.34398
0
LINE
8
BLACK
6
CONTINUOUS
10
6.26725
20
-6.34398
11
6.271
21
-6.35148
0
LINE
8
BLACK
6
CONTINUOUS
10
6.271
20
-6.35148
11
6.271
21
-6.35898
0
LINE
8
BLACK
6
CONTINUOUS
10
6.271
20
-6.35898
11
6.2335
21
-6.36648
0
LINE
8
BLACK
6
CONTINUOUS
10
6.30099
20
-6.38898
11
6.30849
21
-6.39273
0
LINE
8
BLACK
6
CONTINUOUS
10
6.30849
20
-6.39273
11
6.32349
21
-6.39273
0
LINE
8
BLACK
6
CONTINUOUS
10
6.32349
20
-6.39273
11
6.33099
21
-6.38898
0
LINE
8
BLACK
6
CONTINUOUS
10
6.33099
20
-6.38898
11
6.33474
21
-6.38148
0
LINE
8
BLACK
6
CONTINUOUS
10
6.33474
20
-6.38148
11
6.33474
21
-6.37773
0
LINE
8
BLACK
6
CONTINUOUS
10
6.33474
20
-6.37773
11
6.33099
21
-6.37023
0
LINE
8
BLACK
6
CONTINUOUS
10
6.33099
20
-6.37023
11
6.32349
21
-6.36648
0
LINE
8
BLACK
6
CONTINUOUS
10
6.32349
20
-6.36648
11
6.31224
21
-6.36648
0
LINE
8
BLACK
6
CONTINUOUS
10
6.31224
20
-6.36648
11
6.30474
21
-6.36273
0
LINE
8
BLACK
6
CONTINUOUS
10
6.30474
20
-6.36273
11
6.30099
21
-6.35523
0
LINE
8
BLACK
6
CONTINUOUS
10
6.30099
20
-6.35523
11
6.30099
21
-6.35148
0
LINE
8
BLACK
6
CONTINUOUS
10
6.30099
20
-6.35148
11
6.30474
21
-6.34398
0
LINE
8
BLACK
6
CONTINUOUS
10
6.30474
20
-6.34398
11
6.31224
21
-6.34023
0
LINE
8
BLACK
6
CONTINUOUS
10
6.31224
20
-6.34023
11
6.32349
21
-6.34023
0
LINE
8
BLACK
6
CONTINUOUS
10
6.32349
20
-6.34023
11
6.33099
21
-6.34398
0
LINE
8
BLACK
6
CONTINUOUS
10
6.36099
20
-6.42272
11
6.36474
21
-6.41897
0
LINE
8
BLACK
6
CONTINUOUS
10
6.36474
20
-6.41897
11
6.37223
21
-6.40772
0
LINE
8
BLACK
6
CONTINUOUS
10
6.37223
20
-6.40772
11
6.37598
21
-6.40022
0
LINE
8
BLACK
6
CONTINUOUS
10
6.37598
20
-6.40022
11
6.37973
21
-6.38898
0
LINE
8
BLACK
6
CONTINUOUS
10
6.37973
20
-6.38898
11
6.38348
21
-6.37023
0
LINE
8
BLACK
6
CONTINUOUS
10
6.38348
20
-6.37023
11
6.38348
21
-6.35523
0
LINE
8
BLACK
6
CONTINUOUS
10
6.38348
20
-6.35523
11
6.37973
21
-6.33648
0
LINE
8
BLACK
6
CONTINUOUS
10
6.37973
20
-6.33648
11
6.37598
21
-6.32523
0
LINE
8
BLACK
6
CONTINUOUS
10
6.37598
20
-6.32523
11
6.37223
21
-6.31774
0
LINE
8
BLACK
6
CONTINUOUS
10
6.37223
20
-6.31774
11
6.36474
21
-6.30649
0
LINE
8
BLACK
6
CONTINUOUS
10
6.36474
20
-6.30649
11
6.36099
21
-6.30274
0
CIRCLE
8
BLACK
10
4.46614
20
-6.46024
40
0.0200787
0
LINE
8
BLACK
6
CONTINUOUS
10
4.62495
20
-6.49666
11
4.57996
21
-6.49666
0
LINE
8
BLACK
6
CONTINUOUS
10
4.60246
20
-6.49666
11
4.60246
21
-6.41792
0
LINE
8
BLACK
6
CONTINUOUS
10
4.60246
20
-6.41792
11
4.59496
21
-6.42917
0
LINE
8
BLACK
6
CONTINUOUS
10
4.59496
20
-6.42917
11
4.58746
21
-6.43667
0
LINE
8
BLACK
6
CONTINUOUS
10
4.58746
20
-6.43667
11
4.57996
21
-6.44042
0
LINE
8
BLACK
6
CONTINUOUS
10
4.6587
20
-6.48916
11
4.66245
21
-6.49291
0
LINE
8
BLACK
6
CONTINUOUS
10
4.66245
20
-6.49291
11
4.6587
21
-6.49666
0
LINE
8
BLACK
6
CONTINUOUS
10
4.6587
20
-6.49666
11
4.65495
21
-6.49291
0
LINE
8
BLACK
6
CONTINUOUS
10
4.65495
20
-6.49291
11
4.6587
21
-6.48916
0
LINE
8
BLACK
6
CONTINUOUS
10
4.6587
20
-6.48916
11
4.6587
21
-6.49666
0
LINE
8
BLACK
6
CONTINUOUS
10
4.71119
20
-6.41792
11
4.71869
21
-6.41792
0
LINE
8
BLACK
6
CONTINUOUS
10
4.71869
20
-6.41792
11
4.72619
21
-6.42167
0
LINE
8
BLACK
6
CONTINUOUS
10
4.72619
20
-6.42167
11
4.72994
21
-6.42542
0
LINE
8
BLACK
6
CONTINUOUS
10
4.72994
20
-6.42542
11
4.73369
21
-6.43292
0
LINE
8
BLACK
6
CONTINUOUS
10
4.73369
20
-6.43292
11
4.73744
21
-6.44792
0
LINE
8
BLACK
6
CONTINUOUS
10
4.73744
20
-6.44792
11
4.73744
21
-6.46667
0
LINE
8
BLACK
6
CONTINUOUS
10
4.73744
20
-6.46667
11
4.73369
21
-6.48166
0
LINE
8
BLACK
6
CONTINUOUS
10
4.73369
20
-6.48166
11
4.72994
21
-6.48916
0
LINE
8
BLACK
6
CONTINUOUS
10
4.72994
20
-6.48916
11
4.72619
21
-6.49291
0
LINE
8
BLACK
6
CONTINUOUS
10
4.72619
20
-6.49291
11
4.71869
21
-6.49666
0
LINE
8
BLACK
6
CONTINUOUS
10
4.71869
20
-6.49666
11
4.71119
21
-6.49666
0
LINE
8
BLACK
6
CONTINUOUS
10
4.71119
20
-6.49666
11
4.70369
21
-6.49291
0
LINE
8
BLACK
6
CONTINUOUS
10
4.70369
20
-6.49291
11
4.69994
21
-6.48916
0
LINE
8
BLACK
6
CONTINUOUS
10
4.69994
20
-6.48916
11
4.69619
21
-6.48166
0
LINE
8
BLACK
6
CONTINUOUS
10
4.69619
20
-6.48166
11
4.69244
21
-6.46667
0
LINE
8
BLACK
6
CONTINUOUS
10
4.69244
20
-6.46667
11
4.69244
21
-6.44792
0
LINE
8
BLACK
6
CONTINUOUS
10
4.69244
20
-6.44792
11
4.69619
21
-6.43292
0
LINE
8
BLACK
6
CONTINUOUS
10
4.69619
20
-6.43292
11
4.69994
21
-6.42542
0
LINE
8
BLACK
6
CONTINUOUS
10
4.69994
20
-6.42542
11
4.70369
21
-6.42167
0
LINE
8
BLACK
6
CONTINUOUS
10
4.70369
20
-6.42167
11
4.71119
21
-6.41792
0
LINE
8
BLACK
6
CONTINUOUS
10
4.76744
20
-6.42542
11
4.77118
21
-6.42167
0
LINE
8
BLACK
6
CONTINUOUS
10
4.77118
20
-6.42167
11
4.77868
21
-6.41792
0
LINE
8
BLACK
6
CONTINUOUS
10
4.77868
20
-6.41792
11
4.79743
21
-6.41792
0
LINE
8
BLACK
6
CONTINUOUS
10
4.79743
20
-6.41792
11
4.80493
21
-6.42167
0
LINE
8
BLACK
6
CONTINUOUS
10
4.80493
20
-6.42167
11
4.80868
21
-6.42542
0
LINE
8
BLACK
6
CONTINUOUS
10
4.80868
20
-6.42542
11
4.81243
21
-6.43292
0
LINE
8
BLACK
6
CONTINUOUS
10
4.81243
20
-6.43292
11
4.81243
21
-6.44042
0
LINE
8
BLACK
6
CONTINUOUS
10
4.81243
20
-6.44042
11
4.80868
21
-6.45167
0
LINE
8
BLACK
6
CONTINUOUS
10
4.80868
20
-6.45167
11
4.76369
21
-6.49666
0
LINE
8
BLACK
6
CONTINUOUS
10
4.76369
20
-6.49666
11
4.81243
21
-6.49666
0
LINE
8
BLACK
6
CONTINUOUS
10
4.86117
20
-6.41792
11
4.86867
21
-6.41792
0
LINE
8
BLACK
6
CONTINUOUS
10
4.86867
20
-6.41792
11
4.87617
21
-6.42167
0
LINE
8
BLACK
6
CONTINUOUS
10
4.87617
20
-6.42167
11
4.87992
21
-6.42542
0
LINE
8
BLACK
6
CONTINUOUS
10
4.87992
20
-6.42542
11
4.88367
21
-6.43292
0
LINE
8
BLACK
6
CONTINUOUS
10
4.88367
20
-6.43292
11
4.88742
21
-6.44792
0
LINE
8
BLACK
6
CONTINUOUS
10
4.88742
20
-6.44792
11
4.88742
21
-6.46667
0
LINE
8
BLACK
6
CONTINUOUS
10
4.88742
20
-6.46667
11
4.88367
21
-6.48166
0
LINE
8
BLACK
6
CONTINUOUS
10
4.88367
20
-6.48166
11
4.87992
21
-6.48916
0
LINE
8
BLACK
6
CONTINUOUS
10
4.87992
20
-6.48916
11
4.87617
21
-6.49291
0
LINE
8
BLACK
6
CONTINUOUS
10
4.87617
20
-6.49291
11
4.86867
21
-6.49666
0
LINE
8
BLACK
6
CONTINUOUS
10
4.86867
20
-6.49666
11
4.86117
21
-6.49666
0
LINE
8
BLACK
6
CONTINUOUS
10
4.86117
20
-6.49666
11
4.85367
21
-6.49291
0
LINE
8
BLACK
6
CONTINUOUS
10
4.85367
20
-6.49291
11
4.84992
21
-6.48916
0
LINE
8
BLACK
6
CONTINUOUS
10
4.84992
20
-6.48916
11
4.84618
21
-6.48166
0
LINE
8
BLACK
6
CONTINUOUS
10
4.84618
20
-6.48166
11
4.84243
21
-6.46667
0
LINE
8
BLACK
6
CONTINUOUS
10
4.84243
20
-6.46667
11
4.84243
21
-6.44792
0
LINE
8
BLACK
6
CONTINUOUS
10
4.84243
20
-6.44792
11
4.84618
21
-6.43292
0
LINE
8
BLACK
6
CONTINUOUS
10
4.84618
20
-6.43292
11
4.84992
21
-6.42542
0
LINE
8
BLACK
6
CONTINUOUS
10
4.84992
20
-6.42542
11
4.85367
21
-6.42167
0
LINE
8
BLACK
6
CONTINUOUS
10
4.85367
20
-6.42167
11
4.86117
21
-6.41792
0
LINE
8
BLACK
6
CONTINUOUS
10
4.92117
20
-6.49666
11
4.92117
21
-6.44417
0
LINE
8
BLACK
6
CONTINUOUS
10
4.92117
20
-6.45167
11
4.92492
21
-6.44792
0
LINE
8
BLACK
6
CONTINUOUS
10
4.92492
20
-6.44792
11
4.93241
21
-6.44417
0
LINE
8
BLACK
6
CONTINUOUS
10
4.93241
20
-6.44417
11
4.94366
21
-6.44417
0
LINE
8
BLACK
6
CONTINUOUS
10
4.94366
20
-6.44417
11
4.95116
21
-6.44792
0
LINE
8
BLACK
6
CONTINUOUS
10
4.95116
20
-6.44792
11
4.95491
21
-6.45542
0
LINE
8
BLACK
6
CONTINUOUS
10
4.95491
20
-6.45542
11
4.95491
21
-6.49666
0
LINE
8
BLACK
6
CONTINUOUS
10
4.95491
20
-6.45542
11
4.95866
21
-6.44792
0
LINE
8
BLACK
6
CONTINUOUS
10
4.95866
20
-6.44792
11
4.96616
21
-6.44417
0
LINE
8
BLACK
6
CONTINUOUS
10
4.96616
20
-6.44417
11
4.97741
21
-6.44417
0
LINE
8
BLACK
6
CONTINUOUS
10
4.97741
20
-6.44417
11
4.98491
21
-6.44792
0
LINE
8
BLACK
6
CONTINUOUS
10
4.98491
20
-6.44792
11
4.98866
21
-6.45542
0
LINE
8
BLACK
6
CONTINUOUS
10
4.98866
20
-6.45542
11
4.98866
21
-6.49666
0
LINE
8
BLACK
6
CONTINUOUS
10
5.02615
20
-6.49666
11
5.02615
21
-6.44417
0
LINE
8
BLACK
6
CONTINUOUS
10
5.02615
20
-6.45167
11
5.0299
21
-6.44792
0
LINE
8
BLACK
6
CONTINUOUS
10
5.0299
20
-6.44792
11
5.0374
21
-6.44417
0
LINE
8
BLACK
6
CONTINUOUS
10
5.0374
20
-6.44417
11
5.04865
21
-6.44417
0
LINE
8
BLACK
6
CONTINUOUS
10
5.04865
20
-6.44417
11
5.05615
21
-6.44792
0
LINE
8
BLACK
6
CONTINUOUS
10
5.05615
20
-6.44792
11
5.0599
21
-6.45542
0
LINE
8
BLACK
6
CONTINUOUS
10
5.0599
20
-6.45542
11
5.0599
21
-6.49666
0
LINE
8
BLACK
6
CONTINUOUS
10
5.0599
20
-6.45542
11
5.06365
21
-6.44792
0
LINE
8
BLACK
6
CONTINUOUS
10
5.06365
20
-6.44792
11
5.07115
21
-6.44417
0
LINE
8
BLACK
6
CONTINUOUS
10
5.07115
20
-6.44417
11
5.0824
21
-6.44417
0
LINE
8
BLACK
6
CONTINUOUS
10
5.0824
20
-6.44417
11
5.0899
21
-6.44792
0
LINE
8
BLACK
6
CONTINUOUS
10
5.0899
20
-6.44792
11
5.09364
21
-6.45542
0
LINE
8
BLACK
6
CONTINUOUS
10
5.09364
20
-6.45542
11
5.09364
21
-6.49666
0
LINE
8
BLACK
6
CONTINUOUS
10
5.24738
20
-6.41417
11
5.17988
21
-6.51541
0
LINE
8
BLACK
6
CONTINUOUS
10
5.34861
20
-6.41792
11
5.35611
21
-6.41792
0
LINE
8
BLACK
6
CONTINUOUS
10
5.35611
20
-6.41792
11
5.36361
21
-6.42167
0
LINE
8
BLACK
6
CONTINUOUS
10
5.36361
20
-6.42167
11
5.36736
21
-6.42542
0
LINE
8
BLACK
6
CONTINUOUS
10
5.36736
20
-6.42542
11
5.37111
21
-6.43292
0
LINE
8
BLACK
6
CONTINUOUS
10
5.37111
20
-6.43292
11
5.37486
21
-6.44792
0
LINE
8
BLACK
6
CONTINUOUS
10
5.37486
20
-6.44792
11
5.37486
21
-6.46667
0
LINE
8
BLACK
6
CONTINUOUS
10
5.37486
20
-6.46667
11
5.37111
21
-6.48166
0
LINE
8
BLACK
6
CONTINUOUS
10
5.37111
20
-6.48166
11
5.36736
21
-6.48916
0
LINE
8
BLACK
6
CONTINUOUS
10
5.36736
20
-6.48916
11
5.36361
21
-6.49291
0
LINE
8
BLACK
6
CONTINUOUS
10
5.36361
20
-6.49291
11
5.35611
21
-6.49666
0
LINE
8
BLACK
6
CONTINUOUS
10
5.35611
20
-6.49666
11
5.34861
21
-6.49666
0
LINE
8
BLACK
6
CONTINUOUS
10
5.34861
20
-6.49666
11
5.34111
21
-6.49291
0
LINE
8
BLACK
6
CONTINUOUS
10
5.34111
20
-6.49291
11
5.33736
21
-6.48916
0
LINE
8
BLACK
6
CONTINUOUS
10
5.33736
20
-6.48916
11
5.33361
21
-6.48166
0
LINE
8
BLACK
6
CONTINUOUS
10
5.33361
20
-6.48166
11
5.32987
21
-6.46667
0
LINE
8
BLACK
6
CONTINUOUS
10
5.32987
20
-6.46667
11
5.32987
21
-6.44792
0
LINE
8
BLACK
6
CONTINUOUS
10
5.32987
20
-6.44792
11
5.33361
21
-6.43292
0
LINE
8
BLACK
6
CONTINUOUS
10
5.33361
20
-6.43292
11
5.33736
21
-6.42542
0
LINE
8
BLACK
6
CONTINUOUS
10
5.33736
20
-6.42542
11
5.34111
21
-6.42167
0
LINE
8
BLACK
6
CONTINUOUS
10
5.34111
20
-6.42167
11
5.34861
21
-6.41792
0
LINE
8
BLACK
6
CONTINUOUS
10
5.40861
20
-6.48916
11
5.41235
21
-6.49291
0
LINE
8
BLACK
6
CONTINUOUS
10
5.41235
20
-6.49291
11
5.40861
21
-6.49666
0
LINE
8
BLACK
6
CONTINUOUS
10
5.40861
20
-6.49666
11
5.40486
21
-6.49291
0
LINE
8
BLACK
6
CONTINUOUS
10
5.40486
20
-6.49291
11
5.40861
21
-6.48916
0
LINE
8
BLACK
6
CONTINUOUS
10
5.40861
20
-6.48916
11
5.40861
21
-6.49666
0
LINE
8
BLACK
6
CONTINUOUS
10
5.4611
20
-6.41792
11
5.4686
21
-6.41792
0
LINE
8
BLACK
6
CONTINUOUS
10
5.4686
20
-6.41792
11
5.4761
21
-6.42167
0
LINE
8
BLACK
6
CONTINUOUS
10
5.4761
20
-6.42167
11
5.47985
21
-6.42542
0
LINE
8
BLACK
6
CONTINUOUS
10
5.47985
20
-6.42542
11
5.4836
21
-6.43292
0
LINE
8
BLACK
6
CONTINUOUS
10
5.4836
20
-6.43292
11
5.48735
21
-6.44792
0
LINE
8
BLACK
6
CONTINUOUS
10
5.48735
20
-6.44792
11
5.48735
21
-6.46667
0
LINE
8
BLACK
6
CONTINUOUS
10
5.48735
20
-6.46667
11
5.4836
21
-6.48166
0
LINE
8
BLACK
6
CONTINUOUS
10
5.4836
20
-6.48166
11
5.47985
21
-6.48916
0
LINE
8
BLACK
6
CONTINUOUS
10
5.47985
20
-6.48916
11
5.4761
21
-6.49291
0
LINE
8
BLACK
6
CONTINUOUS
10
5.4761
20
-6.49291
11
5.4686
21
-6.49666
0
LINE
8
BLACK
6
CONTINUOUS
10
5.4686
20
-6.49666
11
5.4611
21
-6.49666
0
LINE
8
BLACK
6
CONTINUOUS
10
5.4611
20
-6.49666
11
5.4536
21
-6.49291
0
LINE
8
BLACK
6
CONTINUOUS
10
5.4536
20
-6.49291
11
5.44985
21
-6.48916
0
LINE
8
BLACK
6
CONTINUOUS
10
5.44985
20
-6.48916
11
5.4461
21
-6.48166
0
LINE
8
BLACK
6
CONTINUOUS
10
5.4461
20
-6.48166
11
5.44235
21
-6.46667
0
LINE
8
BLACK
6
CONTINUOUS
10
5.44235
20
-6.46667
11
5.44235
21
-6.44792
0
LINE
8
BLACK
6
CONTINUOUS
10
5.44235
20
-6.44792
11
5.4461
21
-6.43292
0
LINE
8
BLACK
6
CONTINUOUS
10
5.4461
20
-6.43292
11
5.44985
21
-6.42542
0
LINE
8
BLACK
6
CONTINUOUS
10
5.44985
20
-6.42542
11
5.4536
21
-6.42167
0
LINE
8
BLACK
6
CONTINUOUS
10
5.4536
20
-6.42167
11
5.4611
21
-6.41792
0
LINE
8
BLACK
6
CONTINUOUS
10
5.55484
20
-6.44417
11
5.55484
21
-6.49666
0
LINE
8
BLACK
6
CONTINUOUS
10
5.53609
20
-6.41417
11
5.51734
21
-6.47042
0
LINE
8
BLACK
6
CONTINUOUS
10
5.51734
20
-6.47042
11
5.56609
21
-6.47042
0
LINE
8
BLACK
6
CONTINUOUS
10
5.61108
20
-6.41792
11
5.61858
21
-6.41792
0
LINE
8
BLACK
6
CONTINUOUS
10
5.61858
20
-6.41792
11
5.62608
21
-6.42167
0
LINE
8
BLACK
6
CONTINUOUS
10
5.62608
20
-6.42167
11
5.62983
21
-6.42542
0
LINE
8
BLACK
6
CONTINUOUS
10
5.62983
20
-6.42542
11
5.63358
21
-6.43292
0
LINE
8
BLACK
6
CONTINUOUS
10
5.63358
20
-6.43292
11
5.63733
21
-6.44792
0
LINE
8
BLACK
6
CONTINUOUS
10
5.63733
20
-6.44792
11
5.63733
21
-6.46667
0
LINE
8
BLACK
6
CONTINUOUS
10
5.63733
20
-6.46667
11
5.63358
21
-6.48166
0
LINE
8
BLACK
6
CONTINUOUS
10
5.63358
20
-6.48166
11
5.62983
21
-6.48916
0
LINE
8
BLACK
6
CONTINUOUS
10
5.62983
20
-6.48916
11
5.62608
21
-6.49291
0
LINE
8
BLACK
6
CONTINUOUS
10
5.62608
20
-6.49291
11
5.61858
21
-6.49666
0
LINE
8
BLACK
6
CONTINUOUS
10
5.61858
20
-6.49666
11
5.61108
21
-6.49666
0
LINE
8
BLACK
6
CONTINUOUS
10
5.61108
20
-6.49666
11
5.60358
21
-6.49291
0
LINE
8
BLACK
6
CONTINUOUS
10
5.60358
20
-6.49291
11
5.59983
21
-6.48916
0
LINE
8
BLACK
6
CONTINUOUS
10
5.59983
20
-6.48916
11
5.59608
21
-6.48166
0
LINE
8
BLACK
6
CONTINUOUS
10
5.59608
20
-6.48166
11
5.59233
21
-6.46667
0
LINE
8
BLACK
6
CONTINUOUS
10
5.59233
20
-6.46667
11
5.59233
21
-6.44792
0
LINE
8
BLACK
6
CONTINUOUS
10
5.59233
20
-6.44792
11
5.59608
21
-6.43292
0
LINE
8
BLACK
6
CONTINUOUS
10
5.59608
20
-6.43292
11
5.59983
21
-6.42542
0
LINE
8
BLACK
6
CONTINUOUS
10
5.59983
20
-6.42542
11
5.60358
21
-6.42167
0
LINE
8
BLACK
6
CONTINUOUS
10
5.60358
20
-6.42167
11
5.61108
21
-6.41792
0
LINE
8
BLACK
6
CONTINUOUS
10
5.66732
20
-6.42542
11
5.67107
21
-6.42167
0
LINE
8
BLACK
6
CONTINUOUS
10
5.67107
20
-6.42167
11
5.67857
21
-6.41792
0
LINE
8
BLACK
6
CONTINUOUS
10
5.67857
20
-6.41792
11
5.69732
21
-6.41792
0
LINE
8
BLACK
6
CONTINUOUS
10
5.69732
20
-6.41792
11
5.70482
21
-6.42167
0
LINE
8
BLACK
6
CONTINUOUS
10
5.70482
20
-6.42167
11
5.70857
21
-6.42542
0
LINE
8
BLACK
6
CONTINUOUS
10
5.70857
20
-6.42542
11
5.71232
21
-6.43292
0
LINE
8
BLACK
6
CONTINUOUS
10
5.71232
20
-6.43292
11
5.71232
21
-6.44042
0
LINE
8
BLACK
6
CONTINUOUS
10
5.71232
20
-6.44042
11
5.70857
21
-6.45167
0
LINE
8
BLACK
6
CONTINUOUS
10
5.70857
20
-6.45167
11
5.66357
21
-6.49666
0
LINE
8
BLACK
6
CONTINUOUS
10
5.66357
20
-6.49666
11
5.71232
21
-6.49666
0
LINE
8
BLACK
6
CONTINUOUS
10
5.74231
20
-6.41792
11
5.74231
21
-6.43292
0
LINE
8
BLACK
6
CONTINUOUS
10
5.77231
20
-6.41792
11
5.77231
21
-6.43292
0
LINE
8
BLACK
6
CONTINUOUS
10
5.88855
20
-6.52666
11
5.8848
21
-6.52291
0
LINE
8
BLACK
6
CONTINUOUS
10
5.8848
20
-6.52291
11
5.8773
21
-6.51166
0
LINE
8
BLACK
6
CONTINUOUS
10
5.8773
20
-6.51166
11
5.87355
21
-6.50416
0
LINE
8
BLACK
6
CONTINUOUS
10
5.87355
20
-6.50416
11
5.8698
21
-6.49291
0
LINE
8
BLACK
6
CONTINUOUS
10
5.8698
20
-6.49291
11
5.86605
21
-6.47417
0
LINE
8
BLACK
6
CONTINUOUS
10
5.86605
20
-6.47417
11
5.86605
21
-6.45917
0
LINE
8
BLACK
6
CONTINUOUS
10
5.86605
20
-6.45917
11
5.8698
21
-6.44042
0
LINE
8
BLACK
6
CONTINUOUS
10
5.8698
20
-6.44042
11
5.87355
21
-6.42917
0
LINE
8
BLACK
6
CONTINUOUS
10
5.87355
20
-6.42917
11
5.8773
21
-6.42167
0
LINE
8
BLACK
6
CONTINUOUS
10
5.8773
20
-6.42167
11
5.8848
21
-6.41042
0
LINE
8
BLACK
6
CONTINUOUS
10
5.8848
20
-6.41042
11
5.88855
21
-6.40667
0
LINE
8
BLACK
6
CONTINUOUS
10
5.95229
20
-6.44417
11
5.95229
21
-6.49666
0
LINE
8
BLACK
6
CONTINUOUS
10
5.93354
20
-6.41417
11
5.91479
21
-6.47042
0
LINE
8
BLACK
6
CONTINUOUS
10
5.91479
20
-6.47042
11
5.96354
21
-6.47042
0
LINE
8
BLACK
6
CONTINUOUS
10
5.98603
20
-6.41792
11
6.03478
21
-6.41792
0
LINE
8
BLACK
6
CONTINUOUS
10
6.03478
20
-6.41792
11
6.00853
21
-6.44792
0
LINE
8
BLACK
6
CONTINUOUS
10
6.00853
20
-6.44792
11
6.01978
21
-6.44792
0
LINE
8
BLACK
6
CONTINUOUS
10
6.01978
20
-6.44792
11
6.02728
21
-6.45167
0
LINE
8
BLACK
6
CONTINUOUS
10
6.02728
20
-6.45167
11
6.03103
21
-6.45542
0
LINE
8
BLACK
6
CONTINUOUS
10
6.03103
20
-6.45542
11
6.03478
21
-6.46292
0
LINE
8
BLACK
6
CONTINUOUS
10
6.03478
20
-6.46292
11
6.03478
21
-6.48166
0
LINE
8
BLACK
6
CONTINUOUS
10
6.03478
20
-6.48166
11
6.03103
21
-6.48916
0
LINE
8
BLACK
6
CONTINUOUS
10
6.03103
20
-6.48916
11
6.02728
21
-6.49291
0
LINE
8
BLACK
6
CONTINUOUS
10
6.02728
20
-6.49291
11
6.01978
21
-6.49666
0
LINE
8
BLACK
6
CONTINUOUS
10
6.01978
20
-6.49666
11
5.99728
21
-6.49666
0
LINE
8
BLACK
6
CONTINUOUS
10
5.99728
20
-6.49666
11
5.98978
21
-6.49291
0
LINE
8
BLACK
6
CONTINUOUS
10
5.98978
20
-6.49291
11
5.98603
21
-6.48916
0
LINE
8
BLACK
6
CONTINUOUS
10
6.12852
20
-6.49666
11
6.12852
21
-6.41792
0
LINE
8
BLACK
6
CONTINUOUS
10
6.16226
20
-6.49666
11
6.16226
21
-6.45542
0
LINE
8
BLACK
6
CONTINUOUS
10
6.16226
20
-6.45542
11
6.15851
21
-6.44792
0
LINE
8
BLACK
6
CONTINUOUS
10
6.15851
20
-6.44792
11
6.15101
21
-6.44417
0
LINE
8
BLACK
6
CONTINUOUS
10
6.15101
20
-6.44417
11
6.13976
21
-6.44417
0
LINE
8
BLACK
6
CONTINUOUS
10
6.13976
20
-6.44417
11
6.13226
21
-6.44792
0
LINE
8
BLACK
6
CONTINUOUS
10
6.13226
20
-6.44792
11
6.12852
21
-6.45167
0
LINE
8
BLACK
6
CONTINUOUS
10
6.21101
20
-6.49666
11
6.20351
21
-6.49291
0
LINE
8
BLACK
6
CONTINUOUS
10
6.20351
20
-6.49291
11
6.19976
21
-6.48916
0
LINE
8
BLACK
6
CONTINUOUS
10
6.19976
20
-6.48916
11
6.19601
21
-6.48166
0
LINE
8
BLACK
6
CONTINUOUS
10
6.19601
20
-6.48166
11
6.19601
21
-6.45917
0
LINE
8
BLACK
6
CONTINUOUS
10
6.19601
20
-6.45917
11
6.19976
21
-6.45167
0
LINE
8
BLACK
6
CONTINUOUS
10
6.19976
20
-6.45167
11
6.20351
21
-6.44792
0
LINE
8
BLACK
6
CONTINUOUS
10
6.20351
20
-6.44792
11
6.21101
21
-6.44417
0
LINE
8
BLACK
6
CONTINUOUS
10
6.21101
20
-6.44417
11
6.22225
21
-6.44417
0
LINE
8
BLACK
6
CONTINUOUS
10
6.22225
20
-6.44417
11
6.22975
21
-6.44792
0
LINE
8
BLACK
6
CONTINUOUS
10
6.22975
20
-6.44792
11
6.2335
21
-6.45167
0
LINE
8
BLACK
6
CONTINUOUS
10
6.2335
20
-6.45167
11
6.23725
21
-6.45917
0
LINE
8
BLACK
6
CONTINUOUS
10
6.23725
20
-6.45917
11
6.23725
21
-6.48166
0
LINE
8
BLACK
6
CONTINUOUS
10
6.23725
20
-6.48166
11
6.2335
21
-6.48916
0
LINE
8
BLACK
6
CONTINUOUS
10
6.2335
20
-6.48916
11
6.22975
21
-6.49291
0
LINE
8
BLACK
6
CONTINUOUS
10
6.22975
20
-6.49291
11
6.22225
21
-6.49666
0
LINE
8
BLACK
6
CONTINUOUS
10
6.22225
20
-6.49666
11
6.21101
21
-6.49666
0
LINE
8
BLACK
6
CONTINUOUS
10
6.28225
20
-6.49666
11
6.27475
21
-6.49291
0
LINE
8
BLACK
6
CONTINUOUS
10
6.27475
20
-6.49291
11
6.271
21
-6.48541
0
LINE
8
BLACK
6
CONTINUOUS
10
6.271
20
-6.48541
11
6.271
21
-6.41792
0
LINE
8
BLACK
6
CONTINUOUS
10
6.34224
20
-6.49291
11
6.33474
21
-6.49666
0
LINE
8
BLACK
6
CONTINUOUS
10
6.33474
20
-6.49666
11
6.31974
21
-6.49666
0
LINE
8
BLACK
6
CONTINUOUS
10
6.31974
20
-6.49666
11
6.31224
21
-6.49291
0
LINE
8
BLACK
6
CONTINUOUS
10
6.31224
20
-6.49291
11
6.30849
21
-6.48541
0
LINE
8
BLACK
6
CONTINUOUS
10
6.30849
20
-6.48541
11
6.30849
21
-6.45542
0
LINE
8
BLACK
6
CONTINUOUS
10
6.30849
20
-6.45542
11
6.31224
21
-6.44792
0
LINE
8
BLACK
6
CONTINUOUS
10
6.31224
20
-6.44792
11
6.31974
21
-6.44417
0
LINE
8
BLACK
6
CONTINUOUS
10
6.31974
20
-6.44417
11
6.33474
21
-6.44417
0
LINE
8
BLACK
6
CONTINUOUS
10
6.33474
20
-6.44417
11
6.34224
21
-6.44792
0
LINE
8
BLACK
6
CONTINUOUS
10
6.34224
20
-6.44792
11
6.34599
21
-6.45542
0
LINE
8
BLACK
6
CONTINUOUS
10
6.34599
20
-6.45542
11
6.34599
21
-6.46292
0
LINE
8
BLACK
6
CONTINUOUS
10
6.34599
20
-6.46292
11
6.30849
21
-6.47042
0
LINE
8
BLACK
6
CONTINUOUS
10
6.37598
20
-6.49291
11
6.38348
21
-6.49666
0
LINE
8
BLACK
6
CONTINUOUS
10
6.38348
20
-6.49666
11
6.39848
21
-6.49666
0
LINE
8
BLACK
6
CONTINUOUS
10
6.39848
20
-6.49666
11
6.40598
21
-6.49291
0
LINE
8
BLACK
6
CONTINUOUS
10
6.40598
20
-6.49291
11
6.40973
21
-6.48541
0
LINE
8
BLACK
6
CONTINUOUS
10
6.40973
20
-6.48541
11
6.40973
21
-6.48166
0
LINE
8
BLACK
6
CONTINUOUS
10
6.40973
20
-6.48166
11
6.40598
21
-6.47417
0
LINE
8
BLACK
6
CONTINUOUS
10
6.40598
20
-6.47417
11
6.39848
21
-6.47042
0
LINE
8
BLACK
6
CONTINUOUS
10
6.39848
20
-6.47042
11
6.38723
21
-6.47042
0
LINE
8
BLACK
6
CONTINUOUS
10
6.38723
20
-6.47042
11
6.37973
21
-6.46667
0
LINE
8
BLACK
6
CONTINUOUS
10
6.37973
20
-6.46667
11
6.37598
21
-6.45917
0
LINE
8
BLACK
6
CONTINUOUS
10
6.37598
20
-6.45917
11
6.37598
21
-6.45542
0
LINE
8
BLACK
6
CONTINUOUS
10
6.37598
20
-6.45542
11
6.37973
21
-6.44792
0
LINE
8
BLACK
6
CONTINUOUS
10
6.37973
20
-6.44792
11
6.38723
21
-6.44417
0
LINE
8
BLACK
6
CONTINUOUS
10
6.38723
20
-6.44417
11
6.39848
21
-6.44417
0
LINE
8
BLACK
6
CONTINUOUS
10
6.39848
20
-6.44417
11
6.40598
21
-6.44792
0
LINE
8
BLACK
6
CONTINUOUS
10
6.43598
20
-6.52666
11
6.43973
21
-6.52291
0
LINE
8
BLACK
6
CONTINUOUS
10
6.43973
20
-6.52291
11
6.44723
21
-6.51166
0
LINE
8
BLACK
6
CONTINUOUS
10
6.44723
20
-6.51166
11
6.45098
21
-6.50416
0
LINE
8
BLACK
6
CONTINUOUS
10
6.45098
20
-6.50416
11
6.45472
21
-6.49291
0
LINE
8
BLACK
6
CONTINUOUS
10
6.45472
20
-6.49291
11
6.45847
21
-6.47417
0
LINE
8
BLACK
6
CONTINUOUS
10
6.45847
20
-6.47417
11
6.45847
21
-6.45917
0
LINE
8
BLACK
6
CONTINUOUS
10
6.45847
20
-6.45917
11
6.45472
21
-6.44042
0
LINE
8
BLACK
6
CONTINUOUS
10
6.45472
20
-6.44042
11
6.45098
21
-6.42917
0
LINE
8
BLACK
6
CONTINUOUS
10
6.45098
20
-6.42917
11
6.44723
21
-6.42167
0
LINE
8
BLACK
6
CONTINUOUS
10
6.44723
20
-6.42167
11
6.43973
21
-6.41042
0
LINE
8
BLACK
6
CONTINUOUS
10
6.43973
20
-6.41042
11
6.43598
21
-6.40667
0
LINE
8
BLACK
6
CONTINUOUS
10
4.44685
20
-6.5248
11
4.44685
21
-6.60354
0
LINE
8
BLACK
6
CONTINUOUS
10
4.40748
20
-6.56417
11
4.48622
21
-6.56417
0
LINE
8
BLACK
6
CONTINUOUS
10
4.57996
20
-6.52936
11
4.58371
21
-6.52561
0
LINE
8
BLACK
6
CONTINUOUS
10
4.58371
20
-6.52561
11
4.59121
21
-6.52186
0
LINE
8
BLACK
6
CONTINUOUS
10
4.59121
20
-6.52186
11
4.60996
21
-6.52186
0
LINE
8
BLACK
6
CONTINUOUS
10
4.60996
20
-6.52186
11
4.61745
21
-6.52561
0
LINE
8
BLACK
6
CONTINUOUS
10
4.61745
20
-6.52561
11
4.6212
21
-6.52936
0
LINE
8
BLACK
6
CONTINUOUS
10
4.6212
20
-6.52936
11
4.62495
21
-6.53686
0
LINE
8
BLACK
6
CONTINUOUS
10
4.62495
20
-6.53686
11
4.62495
21
-6.54436
0
LINE
8
BLACK
6
CONTINUOUS
10
4.62495
20
-6.54436
11
4.6212
21
-6.55561
0
LINE
8
BLACK
6
CONTINUOUS
10
4.6212
20
-6.55561
11
4.57621
21
-6.6006
0
LINE
8
BLACK
6
CONTINUOUS
10
4.57621
20
-6.6006
11
4.62495
21
-6.6006
0
LINE
8
BLACK
6
CONTINUOUS
10
4.6587
20
-6.5931
11
4.66245
21
-6.59685
0
LINE
8
BLACK
6
CONTINUOUS
10
4.66245
20
-6.59685
11
4.6587
21
-6.6006
0
LINE
8
BLACK
6
CONTINUOUS
10
4.6587
20
-6.6006
11
4.65495
21
-6.59685
0
LINE
8
BLACK
6
CONTINUOUS
10
4.65495
20
-6.59685
11
4.6587
21
-6.5931
0
LINE
8
BLACK
6
CONTINUOUS
10
4.6587
20
-6.5931
11
4.6587
21
-6.6006
0
LINE
8
BLACK
6
CONTINUOUS
10
4.69244
20
-6.52936
11
4.69619
21
-6.52561
0
LINE
8
BLACK
6
CONTINUOUS
10
4.69619
20
-6.52561
11
4.70369
21
-6.52186
0
LINE
8
BLACK
6
CONTINUOUS
10
4.70369
20
-6.52186
11
4.72244
21
-6.52186
0
LINE
8
BLACK
6
CONTINUOUS
10
4.72244
20
-6.52186
11
4.72994
21
-6.52561
0
LINE
8
BLACK
6
CONTINUOUS
10
4.72994
20
-6.52561
11
4.73369
21
-6.52936
0
LINE
8
BLACK
6
CONTINUOUS
10
4.73369
20
-6.52936
11
4.73744
21
-6.53686
0
LINE
8
BLACK
6
CONTINUOUS
10
4.73744
20
-6.53686
11
4.73744
21
-6.54436
0
LINE
8
BLACK
6
CONTINUOUS
10
4.73744
20
-6.54436
11
4.73369
21
-6.55561
0
LINE
8
BLACK
6
CONTINUOUS
10
4.73369
20
-6.55561
11
4.6887
21
-6.6006
0
LINE
8
BLACK
6
CONTINUOUS
10
4.6887
20
-6.6006
11
4.73744
21
-6.6006
0
LINE
8
BLACK
6
CONTINUOUS
10
4.78618
20
-6.52186
11
4.79368
21
-6.52186
0
LINE
8
BLACK
6
CONTINUOUS
10
4.79368
20
-6.52186
11
4.80118
21
-6.52561
0
LINE
8
BLACK
6
CONTINUOUS
10
4.80118
20
-6.52561
11
4.80493
21
-6.52936
0
LINE
8
BLACK
6
CONTINUOUS
10
4.80493
20
-6.52936
11
4.80868
21
-6.53686
0
LINE
8
BLACK
6
CONTINUOUS
10
4.80868
20
-6.53686
11
4.81243
21
-6.55186
0
LINE
8
BLACK
6
CONTINUOUS
10
4.81243
20
-6.55186
11
4.81243
21
-6.5706
0
LINE
8
BLACK
6
CONTINUOUS
10
4.81243
20
-6.5706
11
4.80868
21
-6.5856
0
LINE
8
BLACK
6
CONTINUOUS
10
4.80868
20
-6.5856
11
4.80493
21
-6.5931
0
LINE
8
BLACK
6
CONTINUOUS
10
4.80493
20
-6.5931
11
4.80118
21
-6.59685
0
LINE
8
BLACK
6
CONTINUOUS
10
4.80118
20
-6.59685
11
4.79368
21
-6.6006
0
LINE
8
BLACK
6
CONTINUOUS
10
4.79368
20
-6.6006
11
4.78618
21
-6.6006
0
LINE
8
BLACK
6
CONTINUOUS
10
4.78618
20
-6.6006
11
4.77868
21
-6.59685
0
LINE
8
BLACK
6
CONTINUOUS
10
4.77868
20
-6.59685
11
4.77493
21
-6.5931
0
LINE
8
BLACK
6
CONTINUOUS
10
4.77493
20
-6.5931
11
4.77118
21
-6.5856
0
LINE
8
BLACK
6
CONTINUOUS
10
4.77118
20
-6.5856
11
4.76744
21
-6.5706
0
LINE
8
BLACK
6
CONTINUOUS
10
4.76744
20
-6.5706
11
4.76744
21
-6.55186
0
LINE
8
BLACK
6
CONTINUOUS
10
4.76744
20
-6.55186
11
4.77118
21
-6.53686
0
LINE
8
BLACK
6
CONTINUOUS
10
4.77118
20
-6.53686
11
4.77493
21
-6.52936
0
LINE
8
BLACK
6
CONTINUOUS
10
4.77493
20
-6.52936
11
4.77868
21
-6.52561
0
LINE
8
BLACK
6
CONTINUOUS
10
4.77868
20
-6.52561
11
4.78618
21
-6.52186
0
LINE
8
BLACK
6
CONTINUOUS
10
4.86117
20
-6.52186
11
4.86867
21
-6.52186
0
LINE
8
BLACK
6
CONTINUOUS
10
4.86867
20
-6.52186
11
4.87617
21
-6.52561
0
LINE
8
BLACK
6
CONTINUOUS
10
4.87617
20
-6.52561
11
4.87992
21
-6.52936
0
LINE
8
BLACK
6
CONTINUOUS
10
4.87992
20
-6.52936
11
4.88367
21
-6.53686
0
LINE
8
BLACK
6
CONTINUOUS
10
4.88367
20
-6.53686
11
4.88742
21
-6.55186
0
LINE
8
BLACK
6
CONTINUOUS
10
4.88742
20
-6.55186
11
4.88742
21
-6.5706
0
LINE
8
BLACK
6
CONTINUOUS
10
4.88742
20
-6.5706
11
4.88367
21
-6.5856
0
LINE
8
BLACK
6
CONTINUOUS
10
4.88367
20
-6.5856
11
4.87992
21
-6.5931
0
LINE
8
BLACK
6
CONTINUOUS
10
4.87992
20
-6.5931
11
4.87617
21
-6.59685
0
LINE
8
BLACK
6
CONTINUOUS
10
4.87617
20
-6.59685
11
4.86867
21
-6.6006
0
LINE
8
BLACK
6
CONTINUOUS
10
4.86867
20
-6.6006
11
4.86117
21
-6.6006
0
LINE
8
BLACK
6
CONTINUOUS
10
4.86117
20
-6.6006
11
4.85367
21
-6.59685
0
LINE
8
BLACK
6
CONTINUOUS
10
4.85367
20
-6.59685
11
4.84992
21
-6.5931
0
LINE
8
BLACK
6
CONTINUOUS
10
4.84992
20
-6.5931
11
4.84618
21
-6.5856
0
LINE
8
BLACK
6
CONTINUOUS
10
4.84618
20
-6.5856
11
4.84243
21
-6.5706
0
LINE
8
BLACK
6
CONTINUOUS
10
4.84243
20
-6.5706
11
4.84243
21
-6.55186
0
LINE
8
BLACK
6
CONTINUOUS
10
4.84243
20
-6.55186
11
4.84618
21
-6.53686
0
LINE
8
BLACK
6
CONTINUOUS
10
4.84618
20
-6.53686
11
4.84992
21
-6.52936
0
LINE
8
BLACK
6
CONTINUOUS
10
4.84992
20
-6.52936
11
4.85367
21
-6.52561
0
LINE
8
BLACK
6
CONTINUOUS
10
4.85367
20
-6.52561
11
4.86117
21
-6.52186
0
LINE
8
BLACK
6
CONTINUOUS
10
4.92117
20
-6.6006
11
4.92117
21
-6.54811
0
LINE
8
BLACK
6
CONTINUOUS
10
4.92117
20
-6.55561
11
4.92492
21
-6.55186
0
LINE
8
BLACK
6
CONTINUOUS
10
4.92492
20
-6.55186
11
4.93241
21
-6.54811
0
LINE
8
BLACK
6
CONTINUOUS
10
4.93241
20
-6.54811
11
4.94366
21
-6.54811
0
LINE
8
BLACK
6
CONTINUOUS
10
4.94366
20
-6.54811
11
4.95116
21
-6.55186
0
LINE
8
BLACK
6
CONTINUOUS
10
4.95116
20
-6.55186
11
4.95491
21
-6.55936
0
LINE
8
BLACK
6
CONTINUOUS
10
4.95491
20
-6.55936
11
4.95491
21
-6.6006
0
LINE
8
BLACK
6
CONTINUOUS
10
4.95491
20
-6.55936
11
4.95866
21
-6.55186
0
LINE
8
BLACK
6
CONTINUOUS
10
4.95866
20
-6.55186
11
4.96616
21
-6.54811
0
LINE
8
BLACK
6
CONTINUOUS
10
4.96616
20
-6.54811
11
4.97741
21
-6.54811
0
LINE
8
BLACK
6
CONTINUOUS
10
4.97741
20
-6.54811
11
4.98491
21
-6.55186
0
LINE
8
BLACK
6
CONTINUOUS
10
4.98491
20
-6.55186
11
4.98866
21
-6.55936
0
LINE
8
BLACK
6
CONTINUOUS
10
4.98866
20
-6.55936
11
4.98866
21
-6.6006
0
LINE
8
BLACK
6
CONTINUOUS
10
5.02615
20
-6.6006
11
5.02615
21
-6.54811
0
LINE
8
BLACK
6
CONTINUOUS
10
5.02615
20
-6.55561
11
5.0299
21
-6.55186
0
LINE
8
BLACK
6
CONTINUOUS
10
5.0299
20
-6.55186
11
5.0374
21
-6.54811
0
LINE
8
BLACK
6
CONTINUOUS
10
5.0374
20
-6.54811
11
5.04865
21
-6.54811
0
LINE
8
BLACK
6
CONTINUOUS
10
5.04865
20
-6.54811
11
5.05615
21
-6.55186
0
LINE
8
BLACK
6
CONTINUOUS
10
5.05615
20
-6.55186
11
5.0599
21
-6.55936
0
LINE
8
BLACK
6
CONTINUOUS
10
5.0599
20
-6.55936
11
5.0599
21
-6.6006
0
LINE
8
BLACK
6
CONTINUOUS
10
5.0599
20
-6.55936
11
5.06365
21
-6.55186
0
LINE
8
BLACK
6
CONTINUOUS
10
5.06365
20
-6.55186
11
5.07115
21
-6.54811
0
LINE
8
BLACK
6
CONTINUOUS
10
5.07115
20
-6.54811
11
5.0824
21
-6.54811
0
LINE
8
BLACK
6
CONTINUOUS
10
5.0824
20
-6.54811
11
5.0899
21
-6.55186
0
LINE
8
BLACK
6
CONTINUOUS
10
5.0899
20
-6.55186
11
5.09364
21
-6.55936
0
LINE
8
BLACK
6
CONTINUOUS
10
5.09364
20
-6.55936
11
5.09364
21
-6.6006
0
LINE
8
BLACK
6
CONTINUOUS
10
5.24738
20
-6.51811
11
5.17988
21
-6.61935
0
LINE
8
BLACK
6
CONTINUOUS
10
5.34861
20
-6.52186
11
5.35611
21
-6.52186
0
LINE
8
BLACK
6
CONTINUOUS
10
5.35611
20
-6.52186
11
5.36361
21
-6.52561
0
LINE
8
BLACK
6
CONTINUOUS
10
5.36361
20
-6.52561
11
5.36736
21
-6.52936
0
LINE
8
BLACK
6
CONTINUOUS
10
5.36736
20
-6.52936
11
5.37111
21
-6.53686
0
LINE
8
BLACK
6
CONTINUOUS
10
5.37111
20
-6.53686
11
5.37486
21
-6.55186
0
LINE
8
BLACK
6
CONTINUOUS
10
5.37486
20
-6.55186
11
5.37486
21
-6.5706
0
LINE
8
BLACK
6
CONTINUOUS
10
5.37486
20
-6.5706
11
5.37111
21
-6.5856
0
LINE
8
BLACK
6
CONTINUOUS
10
5.37111
20
-6.5856
11
5.36736
21
-6.5931
0
LINE
8
BLACK
6
CONTINUOUS
10
5.36736
20
-6.5931
11
5.36361
21
-6.59685
0
LINE
8
BLACK
6
CONTINUOUS
10
5.36361
20
-6.59685
11
5.35611
21
-6.6006
0
LINE
8
BLACK
6
CONTINUOUS
10
5.35611
20
-6.6006
11
5.34861
21
-6.6006
0
LINE
8
BLACK
6
CONTINUOUS
10
5.34861
20
-6.6006
11
5.34111
21
-6.59685
0
LINE
8
BLACK
6
CONTINUOUS
10
5.34111
20
-6.59685
11
5.33736
21
-6.5931
0
LINE
8
BLACK
6
CONTINUOUS
10
5.33736
20
-6.5931
11
5.33361
21
-6.5856
0
LINE
8
BLACK
6
CONTINUOUS
10
5.33361
20
-6.5856
11
5.32987
21
-6.5706
0
LINE
8
BLACK
6
CONTINUOUS
10
5.32987
20
-6.5706
11
5.32987
21
-6.55186
0
LINE
8
BLACK
6
CONTINUOUS
10
5.32987
20
-6.55186
11
5.33361
21
-6.53686
0
LINE
8
BLACK
6
CONTINUOUS
10
5.33361
20
-6.53686
11
5.33736
21
-6.52936
0
LINE
8
BLACK
6
CONTINUOUS
10
5.33736
20
-6.52936
11
5.34111
21
-6.52561
0
LINE
8
BLACK
6
CONTINUOUS
10
5.34111
20
-6.52561
11
5.34861
21
-6.52186
0
LINE
8
BLACK
6
CONTINUOUS
10
5.40861
20
-6.5931
11
5.41235
21
-6.59685
0
LINE
8
BLACK
6
CONTINUOUS
10
5.41235
20
-6.59685
11
5.40861
21
-6.6006
0
LINE
8
BLACK
6
CONTINUOUS
10
5.40861
20
-6.6006
11
5.40486
21
-6.59685
0
LINE
8
BLACK
6
CONTINUOUS
10
5.40486
20
-6.59685
11
5.40861
21
-6.5931
0
LINE
8
BLACK
6
CONTINUOUS
10
5.40861
20
-6.5931
11
5.40861
21
-6.6006
0
LINE
8
BLACK
6
CONTINUOUS
10
5.4611
20
-6.52186
11
5.4686
21
-6.52186
0
LINE
8
BLACK
6
CONTINUOUS
10
5.4686
20
-6.52186
11
5.4761
21
-6.52561
0
LINE
8
BLACK
6
CONTINUOUS
10
5.4761
20
-6.52561
11
5.47985
21
-6.52936
0
LINE
8
BLACK
6
CONTINUOUS
10
5.47985
20
-6.52936
11
5.4836
21
-6.53686
0
LINE
8
BLACK
6
CONTINUOUS
10
5.4836
20
-6.53686
11
5.48735
21
-6.55186
0
LINE
8
BLACK
6
CONTINUOUS
10
5.48735
20
-6.55186
11
5.48735
21
-6.5706
0
LINE
8
BLACK
6
CONTINUOUS
10
5.48735
20
-6.5706
11
5.4836
21
-6.5856
0
LINE
8
BLACK
6
CONTINUOUS
10
5.4836
20
-6.5856
11
5.47985
21
-6.5931
0
LINE
8
BLACK
6
CONTINUOUS
10
5.47985
20
-6.5931
11
5.4761
21
-6.59685
0
LINE
8
BLACK
6
CONTINUOUS
10
5.4761
20
-6.59685
11
5.4686
21
-6.6006
0
LINE
8
BLACK
6
CONTINUOUS
10
5.4686
20
-6.6006
11
5.4611
21
-6.6006
0
LINE
8
BLACK
6
CONTINUOUS
10
5.4611
20
-6.6006
11
5.4536
21
-6.59685
0
LINE
8
BLACK
6
CONTINUOUS
10
5.4536
20
-6.59685
11
5.44985
21
-6.5931
0
LINE
8
BLACK
6
CONTINUOUS
10
5.44985
20
-6.5931
11
5.4461
21
-6.5856
0
LINE
8
BLACK
6
CONTINUOUS
10
5.4461
20
-6.5856
11
5.44235
21
-6.5706
0
LINE
8
BLACK
6
CONTINUOUS
10
5.44235
20
-6.5706
11
5.44235
21
-6.55186
0
LINE
8
BLACK
6
CONTINUOUS
10
5.44235
20
-6.55186
11
5.4461
21
-6.53686
0
LINE
8
BLACK
6
CONTINUOUS
10
5.4461
20
-6.53686
11
5.44985
21
-6.52936
0
LINE
8
BLACK
6
CONTINUOUS
10
5.44985
20
-6.52936
11
5.4536
21
-6.52561
0
LINE
8
BLACK
6
CONTINUOUS
10
5.4536
20
-6.52561
11
5.4611
21
-6.52186
0
LINE
8
BLACK
6
CONTINUOUS
10
5.53234
20
-6.55561
11
5.52484
21
-6.55186
0
LINE
8
BLACK
6
CONTINUOUS
10
5.52484
20
-6.55186
11
5.52109
21
-6.54811
0
LINE
8
BLACK
6
CONTINUOUS
10
5.52109
20
-6.54811
11
5.51734
21
-6.54061
0
LINE
8
BLACK
6
CONTINUOUS
10
5.51734
20
-6.54061
11
5.51734
21
-6.53686
0
LINE
8
BLACK
6
CONTINUOUS
10
5.51734
20
-6.53686
11
5.52109
21
-6.52936
0
LINE
8
BLACK
6
CONTINUOUS
10
5.52109
20
-6.52936
11
5.52484
21
-6.52561
0
LINE
8
BLACK
6
CONTINUOUS
10
5.52484
20
-6.52561
11
5.53234
21
-6.52186
0
LINE
8
BLACK
6
CONTINUOUS
10
5.53234
20
-6.52186
11
5.54734
21
-6.52186
0
LINE
8
BLACK
6
CONTINUOUS
10
5.54734
20
-6.52186
11
5.55484
21
-6.52561
0
LINE
8
BLACK
6
CONTINUOUS
10
5.55484
20
-6.52561
11
5.55859
21
-6.52936
0
LINE
8
BLACK
6
CONTINUOUS
10
5.55859
20
-6.52936
11
5.56234
21
-6.53686
0
LINE
8
BLACK
6
CONTINUOUS
10
5.56234
20
-6.53686
11
5.56234
21
-6.54061
0
LINE
8
BLACK
6
CONTINUOUS
10
5.56234
20
-6.54061
11
5.55859
21
-6.54811
0
LINE
8
BLACK
6
CONTINUOUS
10
5.55859
20
-6.54811
11
5.55484
21
-6.55186
0
LINE
8
BLACK
6
CONTINUOUS
10
5.55484
20
-6.55186
11
5.54734
21
-6.55561
0
LINE
8
BLACK
6
CONTINUOUS
10
5.54734
20
-6.55561
11
5.53234
21
-6.55561
0
LINE
8
BLACK
6
CONTINUOUS
10
5.53234
20
-6.55561
11
5.52484
21
-6.55936
0
LINE
8
BLACK
6
CONTINUOUS
10
5.52484
20
-6.55936
11
5.52109
21
-6.5631
0
LINE
8
BLACK
6
CONTINUOUS
10
5.52109
20
-6.5631
11
5.51734
21
-6.5706
0
LINE
8
BLACK
6
CONTINUOUS
10
5.51734
20
-6.5706
11
5.51734
21
-6.5856
0
LINE
8
BLACK
6
CONTINUOUS
10
5.51734
20
-6.5856
11
5.52109
21
-6.5931
0
LINE
8
BLACK
6
CONTINUOUS
10
5.52109
20
-6.5931
11
5.52484
21
-6.59685
0
LINE
8
BLACK
6
CONTINUOUS
10
5.52484
20
-6.59685
11
5.53234
21
-6.6006
0
LINE
8
BLACK
6
CONTINUOUS
10
5.53234
20
-6.6006
11
5.54734
21
-6.6006
0
LINE
8
BLACK
6
CONTINUOUS
10
5.54734
20
-6.6006
11
5.55484
21
-6.59685
0
LINE
8
BLACK
6
CONTINUOUS
10
5.55484
20
-6.59685
11
5.55859
21
-6.5931
0
LINE
8
BLACK
6
CONTINUOUS
10
5.55859
20
-6.5931
11
5.56234
21
-6.5856
0
LINE
8
BLACK
6
CONTINUOUS
10
5.56234
20
-6.5856
11
5.56234
21
-6.5706
0
LINE
8
BLACK
6
CONTINUOUS
10
5.56234
20
-6.5706
11
5.55859
21
-6.5631
0
LINE
8
BLACK
6
CONTINUOUS
10
5.55859
20
-6.5631
11
5.55484
21
-6.55936
0
LINE
8
BLACK
6
CONTINUOUS
10
5.55484
20
-6.55936
11
5.54734
21
-6.55561
0
LINE
8
BLACK
6
CONTINUOUS
10
5.62983
20
-6.52186
11
5.61483
21
-6.52186
0
LINE
8
BLACK
6
CONTINUOUS
10
5.61483
20
-6.52186
11
5.60733
21
-6.52561
0
LINE
8
BLACK
6
CONTINUOUS
10
5.60733
20
-6.52561
11
5.60358
21
-6.52936
0
LINE
8
BLACK
6
CONTINUOUS
10
5.60358
20
-6.52936
11
5.59608
21
-6.54061
0
LINE
8
BLACK
6
CONTINUOUS
10
5.59608
20
-6.54061
11
5.59233
21
-6.55561
0
LINE
8
BLACK
6
CONTINUOUS
10
5.59233
20
-6.55561
11
5.59233
21
-6.5856
0
LINE
8
BLACK
6
CONTINUOUS
10
5.59233
20
-6.5856
11
5.59608
21
-6.5931
0
LINE
8
BLACK
6
CONTINUOUS
10
5.59608
20
-6.5931
11
5.59983
21
-6.59685
0
LINE
8
BLACK
6
CONTINUOUS
10
5.59983
20
-6.59685
11
5.60733
21
-6.6006
0
LINE
8
BLACK
6
CONTINUOUS
10
5.60733
20
-6.6006
11
5.62233
21
-6.6006
0
LINE
8
BLACK
6
CONTINUOUS
10
5.62233
20
-6.6006
11
5.62983
21
-6.59685
0
LINE
8
BLACK
6
CONTINUOUS
10
5.62983
20
-6.59685
11
5.63358
21
-6.5931
0
LINE
8
BLACK
6
CONTINUOUS
10
5.63358
20
-6.5931
11
5.63733
21
-6.5856
0
LINE
8
BLACK
6
CONTINUOUS
10
5.63733
20
-6.5856
11
5.63733
21
-6.56685
0
LINE
8
BLACK
6
CONTINUOUS
10
5.63733
20
-6.56685
11
5.63358
21
-6.55936
0
LINE
8
BLACK
6
CONTINUOUS
10
5.63358
20
-6.55936
11
5.62983
21
-6.55561
0
LINE
8
BLACK
6
CONTINUOUS
10
5.62983
20
-6.55561
11
5.62233
21
-6.55186
0
LINE
8
BLACK
6
CONTINUOUS
10
5.62233
20
-6.55186
11
5.60733
21
-6.55186
0
LINE
8
BLACK
6
CONTINUOUS
10
5.60733
20
-6.55186
11
5.59983
21
-6.55561
0
LINE
8
BLACK
6
CONTINUOUS
10
5.59983
20
-6.55561
11
5.59608
21
-6.55936
0
LINE
8
BLACK
6
CONTINUOUS
10
5.59608
20
-6.55936
11
5.59233
21
-6.56685
0
LINE
8
BLACK
6
CONTINUOUS
10
5.70482
20
-6.52186
11
5.68982
21
-6.52186
0
LINE
8
BLACK
6
CONTINUOUS
10
5.68982
20
-6.52186
11
5.68232
21
-6.52561
0
LINE
8
BLACK
6
CONTINUOUS
10
5.68232
20
-6.52561
11
5.67857
21
-6.52936
0
LINE
8
BLACK
6
CONTINUOUS
10
5.67857
20
-6.52936
11
5.67107
21
-6.54061
0
LINE
8
BLACK
6
CONTINUOUS
10
5.67107
20
-6.54061
11
5.66732
21
-6.55561
0
LINE
8
BLACK
6
CONTINUOUS
10
5.66732
20
-6.55561
11
5.66732
21
-6.5856
0
LINE
8
BLACK
6
CONTINUOUS
10
5.66732
20
-6.5856
11
5.67107
21
-6.5931
0
LINE
8
BLACK
6
CONTINUOUS
10
5.67107
20
-6.5931
11
5.67482
21
-6.59685
0
LINE
8
BLACK
6
CONTINUOUS
10
5.67482
20
-6.59685
11
5.68232
21
-6.6006
0
LINE
8
BLACK
6
CONTINUOUS
10
5.68232
20
-6.6006
11
5.69732
21
-6.6006
0
LINE
8
BLACK
6
CONTINUOUS
10
5.69732
20
-6.6006
11
5.70482
21
-6.59685
0
LINE
8
BLACK
6
CONTINUOUS
10
5.70482
20
-6.59685
11
5.70857
21
-6.5931
0
LINE
8
BLACK
6
CONTINUOUS
10
5.70857
20
-6.5931
11
5.71232
21
-6.5856
0
LINE
8
BLACK
6
CONTINUOUS
10
5.71232
20
-6.5856
11
5.71232
21
-6.56685
0
LINE
8
BLACK
6
CONTINUOUS
10
5.71232
20
-6.56685
11
5.70857
21
-6.55936
0
LINE
8
BLACK
6
CONTINUOUS
10
5.70857
20
-6.55936
11
5.70482
21
-6.55561
0
LINE
8
BLACK
6
CONTINUOUS
10
5.70482
20
-6.55561
11
5.69732
21
-6.55186
0
LINE
8
BLACK
6
CONTINUOUS
10
5.69732
20
-6.55186
11
5.68232
21
-6.55186
0
LINE
8
BLACK
6
CONTINUOUS
10
5.68232
20
-6.55186
11
5.67482
21
-6.55561
0
LINE
8
BLACK
6
CONTINUOUS
10
5.67482
20
-6.55561
11
5.67107
21
-6.55936
0
LINE
8
BLACK
6
CONTINUOUS
10
5.67107
20
-6.55936
11
5.66732
21
-6.56685
0
LINE
8
BLACK
6
CONTINUOUS
10
5.74231
20
-6.52186
11
5.74231
21
-6.53686
0
LINE
8
BLACK
6
CONTINUOUS
10
5.77231
20
-6.52186
11
5.77231
21
-6.53686
0
LINE
8
BLACK
6
CONTINUOUS
10
5.88855
20
-6.6306
11
5.8848
21
-6.62685
0
LINE
8
BLACK
6
CONTINUOUS
10
5.8848
20
-6.62685
11
5.8773
21
-6.6156
0
LINE
8
BLACK
6
CONTINUOUS
10
5.8773
20
-6.6156
11
5.87355
21
-6.6081
0
LINE
8
BLACK
6
CONTINUOUS
10
5.87355
20
-6.6081
11
5.8698
21
-6.59685
0
LINE
8
BLACK
6
CONTINUOUS
10
5.8698
20
-6.59685
11
5.86605
21
-6.5781
0
LINE
8
BLACK
6
CONTINUOUS
10
5.86605
20
-6.5781
11
5.86605
21
-6.5631
0
LINE
8
BLACK
6
CONTINUOUS
10
5.86605
20
-6.5631
11
5.8698
21
-6.54436
0
LINE
8
BLACK
6
CONTINUOUS
10
5.8698
20
-6.54436
11
5.87355
21
-6.53311
0
LINE
8
BLACK
6
CONTINUOUS
10
5.87355
20
-6.53311
11
5.8773
21
-6.52561
0
LINE
8
BLACK
6
CONTINUOUS
10
5.8773
20
-6.52561
11
5.8848
21
-6.51436
0
LINE
8
BLACK
6
CONTINUOUS
10
5.8848
20
-6.51436
11
5.88855
21
-6.51061
0
LINE
8
BLACK
6
CONTINUOUS
10
5.95229
20
-6.54811
11
5.95229
21
-6.6006
0
LINE
8
BLACK
6
CONTINUOUS
10
5.93354
20
-6.51811
11
5.91479
21
-6.57435
0
LINE
8
BLACK
6
CONTINUOUS
10
5.91479
20
-6.57435
11
5.96354
21
-6.57435
0
LINE
8
BLACK
6
CONTINUOUS
10
6.05352
20
-6.6006
11
6.05352
21
-6.52186
0
LINE
8
BLACK
6
CONTINUOUS
10
6.08727
20
-6.6006
11
6.08727
21
-6.55936
0
LINE
8
BLACK
6
CONTINUOUS
10
6.08727
20
-6.55936
11
6.08352
21
-6.55186
0
LINE
8
BLACK
6
CONTINUOUS
10
6.08352
20
-6.55186
11
6.07602
21
-6.54811
0
LINE
8
BLACK
6
CONTINUOUS
10
6.07602
20
-6.54811
11
6.06477
21
-6.54811
0
LINE
8
BLACK
6
CONTINUOUS
10
6.06477
20
-6.54811
11
6.05727
21
-6.55186
0
LINE
8
BLACK
6
CONTINUOUS
10
6.05727
20
-6.55186
11
6.05352
21
-6.55561
0
LINE
8
BLACK
6
CONTINUOUS
10
6.13601
20
-6.6006
11
6.12852
21
-6.59685
0
LINE
8
BLACK
6
CONTINUOUS
10
6.12852
20
-6.59685
11
6.12477
21
-6.5931
0
LINE
8
BLACK
6
CONTINUOUS
10
6.12477
20
-6.5931
11
6.12102
21
-6.5856
0
LINE
8
BLACK
6
CONTINUOUS
10
6.12102
20
-6.5856
11
6.12102
21
-6.5631
0
LINE
8
BLACK
6
CONTINUOUS
10
6.12102
20
-6.5631
11
6.12477
21
-6.55561
0
LINE
8
BLACK
6
CONTINUOUS
10
6.12477
20
-6.55561
11
6.12852
21
-6.55186
0
LINE
8
BLACK
6
CONTINUOUS
10
6.12852
20
-6.55186
11
6.13601
21
-6.54811
0
LINE
8
BLACK
6
CONTINUOUS
10
6.13601
20
-6.54811
11
6.14726
21
-6.54811
0
LINE
8
BLACK
6
CONTINUOUS
10
6.14726
20
-6.54811
11
6.15476
21
-6.55186
0
LINE
8
BLACK
6
CONTINUOUS
10
6.15476
20
-6.55186
11
6.15851
21
-6.55561
0
LINE
8
BLACK
6
CONTINUOUS
10
6.15851
20
-6.55561
11
6.16226
21
-6.5631
0
LINE
8
BLACK
6
CONTINUOUS
10
6.16226
20
-6.5631
11
6.16226
21
-6.5856
0
LINE
8
BLACK
6
CONTINUOUS
10
6.16226
20
-6.5856
11
6.15851
21
-6.5931
0
LINE
8
BLACK
6
CONTINUOUS
10
6.15851
20
-6.5931
11
6.15476
21
-6.59685
0
LINE
8
BLACK
6
CONTINUOUS
10
6.15476
20
-6.59685
11
6.14726
21
-6.6006
0
LINE
8
BLACK
6
CONTINUOUS
10
6.14726
20
-6.6006
11
6.13601
21
-6.6006
0
LINE
8
BLACK
6
CONTINUOUS
10
6.20726
20
-6.6006
11
6.19976
21
-6.59685
0
LINE
8
BLACK
6
CONTINUOUS
10
6.19976
20
-6.59685
11
6.19601
21
-6.58935
0
LINE
8
BLACK
6
CONTINUOUS
10
6.19601
20
-6.58935
11
6.19601
21
-6.52186
0
LINE
8
BLACK
6
CONTINUOUS
10
6.26725
20
-6.59685
11
6.25975
21
-6.6006
0
LINE
8
BLACK
6
CONTINUOUS
10
6.25975
20
-6.6006
11
6.24475
21
-6.6006
0
LINE
8
BLACK
6
CONTINUOUS
10
6.24475
20
-6.6006
11
6.23725
21
-6.59685
0
LINE
8
BLACK
6
CONTINUOUS
10
6.23725
20
-6.59685
11
6.2335
21
-6.58935
0
LINE
8
BLACK
6
CONTINUOUS
10
6.2335
20
-6.58935
11
6.2335
21
-6.55936
0
LINE
8
BLACK
6
CONTINUOUS
10
6.2335
20
-6.55936
11
6.23725
21
-6.55186
0
LINE
8
BLACK
6
CONTINUOUS
10
6.23725
20
-6.55186
11
6.24475
21
-6.54811
0
LINE
8
BLACK
6
CONTINUOUS
10
6.24475
20
-6.54811
11
6.25975
21
-6.54811
0
LINE
8
BLACK
6
CONTINUOUS
10
6.25975
20
-6.54811
11
6.26725
21
-6.55186
0
LINE
8
BLACK
6
CONTINUOUS
10
6.26725
20
-6.55186
11
6.271
21
-6.55936
0
LINE
8
BLACK
6
CONTINUOUS
10
6.271
20
-6.55936
11
6.271
21
-6.56685
0
LINE
8
BLACK
6
CONTINUOUS
10
6.271
20
-6.56685
11
6.2335
21
-6.57435
0
LINE
8
BLACK
6
CONTINUOUS
10
6.30099
20
-6.59685
11
6.30849
21
-6.6006
0
LINE
8
BLACK
6
CONTINUOUS
10
6.30849
20
-6.6006
11
6.32349
21
-6.6006
0
LINE
8
BLACK
6
CONTINUOUS
10
6.32349
20
-6.6006
11
6.33099
21
-6.59685
0
LINE
8
BLACK
6
CONTINUOUS
10
6.33099
20
-6.59685
11
6.33474
21
-6.58935
0
LINE
8
BLACK
6
CONTINUOUS
10
6.33474
20
-6.58935
11
6.33474
21
-6.5856
0
LINE
8
BLACK
6
CONTINUOUS
10
6.33474
20
-6.5856
11
6.33099
21
-6.5781
0
LINE
8
BLACK
6
CONTINUOUS
10
6.33099
20
-6.5781
11
6.32349
21
-6.57435
0
LINE
8
BLACK
6
CONTINUOUS
10
6.32349
20
-6.57435
11
6.31224
21
-6.57435
0
LINE
8
BLACK
6
CONTINUOUS
10
6.31224
20
-6.57435
11
6.30474
21
-6.5706
0
LINE
8
BLACK
6
CONTINUOUS
10
6.30474
20
-6.5706
11
6.30099
21
-6.5631
0
LINE
8
BLACK
6
CONTINUOUS
10
6.30099
20
-6.5631
11
6.30099
21
-6.55936
0
LINE
8
BLACK
6
CONTINUOUS
10
6.30099
20
-6.55936
11
6.30474
21
-6.55186
0
LINE
8
BLACK
6
CONTINUOUS
10
6.30474
20
-6.55186
11
6.31224
21
-6.54811
0
LINE
8
BLACK
6
CONTINUOUS
10
6.31224
20
-6.54811
11
6.32349
21
-6.54811
0
LINE
8
BLACK
6
CONTINUOUS
10
6.32349
20
-6.54811
11
6.33099
21
-6.55186
0
LINE
8
BLACK
6
CONTINUOUS
10
6.36099
20
-6.6306
11
6.36474
21
-6.62685
0
LINE
8
BLACK
6
CONTINUOUS
10
6.36474
20
-6.62685
11
6.37223
21
-6.6156
0
LINE
8
BLACK
6
CONTINUOUS
10
6.37223
20
-6.6156
11
6.37598
21
-6.6081
0
LINE
8
BLACK
6
CONTINUOUS
10
6.37598
20
-6.6081
11
6.37973
21
-6.59685
0
LINE
8
BLACK
6
CONTINUOUS
10
6.37973
20
-6.59685
11
6.38348
21
-6.5781
0
LINE
8
BLACK
6
CONTINUOUS
10
6.38348
20
-6.5781
11
6.38348
21
-6.5631
0
LINE
8
BLACK
6
CONTINUOUS
10
6.38348
20
-6.5631
11
6.37973
21
-6.54436
0
LINE
8
BLACK
6
CONTINUOUS
10
6.37973
20
-6.54436
11
6.37598
21
-6.53311
0
LINE
8
BLACK
6
CONTINUOUS
10
6.37598
20
-6.53311
11
6.37223
21
-6.52561
0
LINE
8
BLACK
6
CONTINUOUS
10
6.37223
20
-6.52561
11
6.36474
21
-6.51436
0
LINE
8
BLACK
6
CONTINUOUS
10
6.36474
20
-6.51436
11
6.36099
21
-6.51061
  0
ENDSEC
  0
EOF
